<svg id="Layer_1" data-name="Layer 1" xmlns="http://www.w3.org/2000/svg" viewBox="0 0 1920 49.58"><defs><style>.cls-1{fill:#ea516d;}</style></defs><title>TD_pattern_coral_cropped</title><path class="cls-1" d="M1439.08,377.79a8.31,8.31,0,1,0-8.59-8.59.35.35,0,0,0,.35.37h2.24a.35.35,0,0,0,.35-.34,5.36,5.36,0,1,1,5.61,5.61.35.35,0,0,0-.34.35v2.24a.35.35,0,0,0,.11.25A.34.34,0,0,0,1439.08,377.79Z" transform="translate(-108 -359.42)"/><circle class="cls-1" cx="1330.8" cy="10.07" r="1.84"/><rect class="cls-1" x="1322.49" y="14.64" width="2.95" height="15.35" rx="0.35" ry="0.35"/><rect class="cls-1" x="1350.83" y="3.5" width="18.47" height="2.95" rx="0.35" ry="0.35"/><rect class="cls-1" x="1366.35" y="14.64" width="2.95" height="15.35" rx="0.35" ry="0.35"/><circle class="cls-1" cx="1411.6" cy="34.56" r="1.84"/><path class="cls-1" d="M1461.63,383.5a8.32,8.32,0,0,0,8.31-8.31,6.68,6.68,0,0,0-6.67-6.67,5.62,5.62,0,0,0-5.62,5.34.35.35,0,0,0,.35.37h2.24a.35.35,0,0,0,.35-.32,2.7,2.7,0,0,1,2.67-2.44,3.72,3.72,0,0,1,3.72,3.72,5.36,5.36,0,0,1-10.73,0V359.78a.35.35,0,0,0-.35-.35h-2.24a.35.35,0,0,0-.35.35v15.41A8.32,8.32,0,0,0,1461.63,383.5Z" transform="translate(-108 -359.42)"/><rect class="cls-1" x="1322.49" y="45.99" width="18.47" height="2.95" rx="0.35" ry="0.35"/><rect class="cls-1" x="1416.97" y="14.64" width="2.95" height="15.35" rx="0.35" ry="0.35"/><path class="cls-1" d="M1477.2,394a.35.35,0,0,0-.25-.11h-2.24a.35.35,0,0,0-.35.34,5.36,5.36,0,1,1-5.61-5.61.35.35,0,0,0,.34-.35V386a.36.36,0,0,0-.11-.25.34.34,0,0,0-.26-.1,8.31,8.31,0,1,0,8.59,8.59A.35.35,0,0,0,1477.2,394Z" transform="translate(-108 -359.42)"/><rect class="cls-1" x="1401.45" y="3.5" width="18.47" height="2.95" rx="0.35" ry="0.35"/><path class="cls-1" d="M1451.88,404h2.24a.35.35,0,0,0,.35-.35V388.28a8.31,8.31,0,0,0-16.62,0,6.68,6.68,0,0,0,6.67,6.67,5.62,5.62,0,0,0,5.62-5.34.35.35,0,0,0-.35-.37h-2.24a.35.35,0,0,0-.35.32,2.7,2.7,0,0,1-2.67,2.44,3.73,3.73,0,0,1-3.72-3.72,5.36,5.36,0,0,1,10.73,0v15.41A.35.35,0,0,0,1451.88,404Z" transform="translate(-108 -359.42)"/><path class="cls-1" d="M1426.58,394a.35.35,0,0,0-.25-.11h-2.24a.35.35,0,0,0-.35.34,5.36,5.36,0,1,1-5.61-5.61.35.35,0,0,0,.34-.35V386a.36.36,0,0,0-.11-.25.34.34,0,0,0-.26-.1,8.31,8.31,0,1,0,8.59,8.59A.35.35,0,0,0,1426.58,394Z" transform="translate(-108 -359.42)"/><rect class="cls-1" x="1322.49" y="38.18" width="18.47" height="2.95" rx="0.35" ry="0.35"/><circle class="cls-1" cx="1360.99" cy="34.56" r="1.84"/><path class="cls-1" d="M1350.65,404h2.24a.35.35,0,0,0,.35-.35V388.28a8.31,8.31,0,1,0-16.62,0,6.68,6.68,0,0,0,6.67,6.67,5.62,5.62,0,0,0,5.62-5.34.35.35,0,0,0-.35-.37h-2.24a.35.35,0,0,0-.35.32,2.7,2.7,0,0,1-2.67,2.44,3.72,3.72,0,0,1-3.72-3.72,5.36,5.36,0,0,1,10.73,0v15.41A.35.35,0,0,0,1350.65,404Z" transform="translate(-108 -359.42)"/><path class="cls-1" d="M1376,394a.36.36,0,0,0-.25-.11h-2.24a.35.35,0,0,0-.35.34,5.36,5.36,0,1,1-5.61-5.61.35.35,0,0,0,.34-.35V386a.36.36,0,0,0-.11-.25.34.34,0,0,0-.26-.1,8.31,8.31,0,1,0,8.59,8.59A.35.35,0,0,0,1376,394Z" transform="translate(-108 -359.42)"/><rect class="cls-1" x="1300.22" y="3.5" width="18.47" height="2.95" rx="0.35" ry="0.35"/><rect class="cls-1" x="1315.74" y="14.64" width="2.95" height="15.35" rx="0.35" ry="0.35"/><path class="cls-1" d="M1337.85,377.79a8.31,8.31,0,1,0-8.59-8.59.35.35,0,0,0,.35.37h2.24a.35.35,0,0,0,.35-.34,5.36,5.36,0,1,1,5.61,5.61.35.35,0,0,0-.34.35v2.24a.35.35,0,0,0,.11.25A.34.34,0,0,0,1337.85,377.79Z" transform="translate(-108 -359.42)"/><rect class="cls-1" x="1221.26" y="38.18" width="18.47" height="2.95" rx="0.35" ry="0.35"/><rect class="cls-1" x="1221.26" y="45.99" width="18.47" height="2.95" rx="0.35" ry="0.35"/><circle class="cls-1" cx="1310.38" cy="34.56" r="1.84"/><rect class="cls-1" x="1271.88" y="45.99" width="18.47" height="2.95" rx="0.35" ry="0.35"/><path class="cls-1" d="M1388.47,377.79a8.31,8.31,0,1,0-8.59-8.59.35.35,0,0,0,.35.37h2.24a.35.35,0,0,0,.35-.34,5.36,5.36,0,1,1,5.61,5.61.35.35,0,0,0-.34.35v2.24a.35.35,0,0,0,.11.25A.34.34,0,0,0,1388.47,377.79Z" transform="translate(-108 -359.42)"/><rect class="cls-1" x="1271.88" y="38.18" width="18.47" height="2.95" rx="0.35" ry="0.35"/><path class="cls-1" d="M1411,383.5a8.32,8.32,0,0,0,8.31-8.31,6.68,6.68,0,0,0-6.67-6.67,5.62,5.62,0,0,0-5.62,5.34.35.35,0,0,0,.35.37h2.24a.35.35,0,0,0,.35-.32,2.7,2.7,0,0,1,2.67-2.44,3.72,3.72,0,0,1,3.72,3.72,5.36,5.36,0,0,1-10.73,0V359.78a.35.35,0,0,0-.35-.35h-2.24a.35.35,0,0,0-.35.35v15.41A8.32,8.32,0,0,0,1411,383.5Z" transform="translate(-108 -359.42)"/><path class="cls-1" d="M1401.26,404h2.24a.35.35,0,0,0,.35-.35V388.28a8.31,8.31,0,1,0-16.62,0,6.68,6.68,0,0,0,6.67,6.67,5.62,5.62,0,0,0,5.62-5.34.35.35,0,0,0-.35-.37h-2.24a.35.35,0,0,0-.35.32,2.7,2.7,0,0,1-2.67,2.44,3.73,3.73,0,0,1-3.72-3.72,5.36,5.36,0,0,1,10.73,0v15.41A.35.35,0,0,0,1401.26,404Z" transform="translate(-108 -359.42)"/><circle class="cls-1" cx="1280.19" cy="10.07" r="1.84"/><rect class="cls-1" x="1271.88" y="14.64" width="2.95" height="15.35" rx="0.35" ry="0.35"/><rect class="cls-1" x="1373.1" y="38.18" width="18.47" height="2.95" rx="0.35" ry="0.35"/><circle class="cls-1" cx="1512.82" cy="34.56" r="1.84"/><rect class="cls-1" x="1518.18" y="14.64" width="2.95" height="15.35" rx="0.35" ry="0.35"/><path class="cls-1" d="M1613.46,383.5a8.32,8.32,0,0,0,8.31-8.31,6.68,6.68,0,0,0-6.67-6.67,5.62,5.62,0,0,0-5.62,5.34.35.35,0,0,0,.35.37h2.24a.35.35,0,0,0,.35-.32,2.7,2.7,0,0,1,2.67-2.44,3.73,3.73,0,0,1,3.72,3.72,5.36,5.36,0,0,1-10.73,0V359.78a.35.35,0,0,0-.35-.35h-2.24a.35.35,0,0,0-.35.35v15.41A8.32,8.32,0,0,0,1613.46,383.5Z" transform="translate(-108 -359.42)"/><path class="cls-1" d="M1578.41,394a.36.36,0,0,0-.25-.11h-2.24a.35.35,0,0,0-.35.34,5.36,5.36,0,1,1-5.61-5.61.35.35,0,0,0,.34-.35V386a.35.35,0,0,0-.11-.25.34.34,0,0,0-.26-.1,8.31,8.31,0,1,0,8.59,8.59A.35.35,0,0,0,1578.41,394Z" transform="translate(-108 -359.42)"/><path class="cls-1" d="M1553.1,404h2.24a.35.35,0,0,0,.35-.35V388.28a8.31,8.31,0,0,0-16.62,0,6.68,6.68,0,0,0,6.67,6.67,5.62,5.62,0,0,0,5.62-5.34.35.35,0,0,0-.35-.37h-2.24a.35.35,0,0,0-.35.32,2.7,2.7,0,0,1-2.67,2.44,3.72,3.72,0,0,1-3.72-3.72,5.36,5.36,0,0,1,10.73,0v15.41A.35.35,0,0,0,1553.1,404Z" transform="translate(-108 -359.42)"/><rect class="cls-1" x="1502.66" y="3.5" width="18.47" height="2.95" rx="0.35" ry="0.35"/><rect class="cls-1" x="1423.71" y="38.18" width="18.47" height="2.95" rx="0.35" ry="0.35"/><rect class="cls-1" x="1474.31" y="14.64" width="2.95" height="15.35" rx="0.35" ry="0.35"/><path class="cls-1" d="M1629,394a.36.36,0,0,0-.25-.11h-2.24a.35.35,0,0,0-.35.34,5.36,5.36,0,1,1-5.61-5.61.35.35,0,0,0,.34-.35V386a.36.36,0,0,0-.11-.25.34.34,0,0,0-.26-.1,8.31,8.31,0,1,0,8.59,8.59A.36.36,0,0,0,1629,394Z" transform="translate(-108 -359.42)"/><path class="cls-1" d="M1603.7,404h2.24a.35.35,0,0,0,.35-.35V388.28a8.31,8.31,0,1,0-16.62,0,6.68,6.68,0,0,0,6.67,6.67,5.62,5.62,0,0,0,5.62-5.34.35.35,0,0,0-.35-.37h-2.24a.35.35,0,0,0-.35.32,2.7,2.7,0,0,1-2.67,2.44,3.72,3.72,0,0,1-3.72-3.72,5.36,5.36,0,0,1,10.73,0v15.41A.35.35,0,0,0,1603.7,404Z" transform="translate(-108 -359.42)"/><rect class="cls-1" x="1553.27" y="3.5" width="18.47" height="2.95" rx="0.35" ry="0.35"/><path class="cls-1" d="M1512.24,383.5a8.32,8.32,0,0,0,8.31-8.31,6.68,6.68,0,0,0-6.67-6.67,5.62,5.62,0,0,0-5.62,5.34.35.35,0,0,0,.35.37h2.24a.35.35,0,0,0,.35-.32,2.7,2.7,0,0,1,2.67-2.44,3.72,3.72,0,0,1,3.72,3.72,5.36,5.36,0,0,1-10.73,0V359.78a.35.35,0,0,0-.35-.35h-2.24a.35.35,0,0,0-.35.35v15.41A8.32,8.32,0,0,0,1512.24,383.5Z" transform="translate(-108 -359.42)"/><path class="cls-1" d="M1590.9,377.79a8.31,8.31,0,1,0-8.59-8.59.35.35,0,0,0,.35.37h2.24a.35.35,0,0,0,.35-.34,5.36,5.36,0,1,1,5.61,5.61.35.35,0,0,0-.34.35v2.24a.35.35,0,0,0,.11.25A.34.34,0,0,0,1590.9,377.79Z" transform="translate(-108 -359.42)"/><rect class="cls-1" x="1474.31" y="45.99" width="18.47" height="2.95" rx="0.35" ry="0.35"/><rect class="cls-1" x="1474.31" y="38.18" width="18.47" height="2.95" rx="0.35" ry="0.35"/><circle class="cls-1" cx="1482.62" cy="10.07" r="1.84"/><circle class="cls-1" cx="1229.57" cy="10.07" r="1.84"/><path class="cls-1" d="M1502.49,404h2.24a.35.35,0,0,0,.35-.35V388.28a8.31,8.31,0,1,0-16.62,0,6.68,6.68,0,0,0,6.67,6.67,5.62,5.62,0,0,0,5.62-5.34.35.35,0,0,0-.35-.37h-2.24a.35.35,0,0,0-.35.32,2.7,2.7,0,0,1-2.67,2.44,3.72,3.72,0,0,1-3.72-3.72,5.36,5.36,0,1,1,10.73,0v15.41A.35.35,0,0,0,1502.49,404Z" transform="translate(-108 -359.42)"/><rect class="cls-1" x="1373.1" y="45.99" width="18.47" height="2.95" rx="0.35" ry="0.35"/><path class="cls-1" d="M1527.81,394a.35.35,0,0,0-.25-.11h-2.24a.35.35,0,0,0-.35.34,5.36,5.36,0,1,1-5.61-5.61.35.35,0,0,0,.34-.35V386a.36.36,0,0,0-.11-.25.34.34,0,0,0-.26-.1,8.31,8.31,0,1,0,8.59,8.59A.35.35,0,0,0,1527.81,394Z" transform="translate(-108 -359.42)"/><rect class="cls-1" x="1423.71" y="45.99" width="18.47" height="2.95" rx="0.35" ry="0.35"/><circle class="cls-1" cx="1381.41" cy="10.07" r="1.84"/><path class="cls-1" d="M1489.69,377.79a8.31,8.31,0,1,0-8.59-8.59.35.35,0,0,0,.35.37h2.24a.35.35,0,0,0,.35-.34,5.36,5.36,0,1,1,5.61,5.61.35.35,0,0,0-.34.35v2.24a.35.35,0,0,0,.11.25A.34.34,0,0,0,1489.69,377.79Z" transform="translate(-108 -359.42)"/><rect class="cls-1" x="1568.79" y="14.64" width="2.95" height="15.35" rx="0.35" ry="0.35"/><circle class="cls-1" cx="1432.02" cy="10.07" r="1.84"/><rect class="cls-1" x="1452.05" y="3.5" width="18.47" height="2.95" rx="0.35" ry="0.35"/><rect class="cls-1" x="1423.71" y="14.64" width="2.95" height="15.35" rx="0.35" ry="0.35"/><path class="cls-1" d="M1540.3,377.79a8.31,8.31,0,1,0-8.59-8.59.35.35,0,0,0,.35.37h2.24a.35.35,0,0,0,.35-.34,5.36,5.36,0,1,1,5.61,5.61.35.35,0,0,0-.34.35v2.24a.35.35,0,0,0,.11.25A.34.34,0,0,0,1540.3,377.79Z" transform="translate(-108 -359.42)"/><rect class="cls-1" x="1467.57" y="14.64" width="2.95" height="15.35" rx="0.35" ry="0.35"/><circle class="cls-1" cx="1462.2" cy="34.56" r="1.84"/><path class="cls-1" d="M1562.84,383.5a8.32,8.32,0,0,0,8.31-8.31,6.68,6.68,0,0,0-6.67-6.67,5.62,5.62,0,0,0-5.62,5.34.35.35,0,0,0,.35.37h2.24a.35.35,0,0,0,.35-.32,2.7,2.7,0,0,1,2.67-2.44,3.72,3.72,0,0,1,3.72,3.72,5.36,5.36,0,0,1-10.73,0V359.78a.35.35,0,0,0-.35-.35h-2.24a.35.35,0,0,0-.35.35v15.41A8.32,8.32,0,0,0,1562.84,383.5Z" transform="translate(-108 -359.42)"/><rect class="cls-1" x="1373.1" y="14.64" width="2.95" height="15.35" rx="0.35" ry="0.35"/><path class="cls-1" d="M1148.2,404h2.24a.35.35,0,0,0,.35-.35V388.28a8.31,8.31,0,1,0-16.62,0,6.68,6.68,0,0,0,6.67,6.67,5.62,5.62,0,0,0,5.62-5.34.35.35,0,0,0-.35-.37h-2.24a.35.35,0,0,0-.35.32,2.7,2.7,0,0,1-2.67,2.44,3.73,3.73,0,0,1-3.72-3.72,5.36,5.36,0,0,1,10.73,0v15.41A.35.35,0,0,0,1148.2,404Z" transform="translate(-108 -359.42)"/><rect class="cls-1" x="1018.82" y="45.99" width="18.47" height="2.95" rx="0.35" ry="0.35"/><rect class="cls-1" x="1018.82" y="38.18" width="18.47" height="2.95" rx="0.35" ry="0.35"/><path class="cls-1" d="M1135.41,377.79a8.31,8.31,0,1,0-8.59-8.59.35.35,0,0,0,.35.37h2.24a.35.35,0,0,0,.35-.34,5.36,5.36,0,1,1,5.61,5.61.35.35,0,0,0-.34.35v2.24a.35.35,0,0,0,.11.25A.34.34,0,0,0,1135.41,377.79Z" transform="translate(-108 -359.42)"/><path class="cls-1" d="M1158,383.5a8.32,8.32,0,0,0,8.31-8.31,6.68,6.68,0,0,0-6.67-6.67,5.62,5.62,0,0,0-5.62,5.34.35.35,0,0,0,.35.37h2.24a.35.35,0,0,0,.35-.32,2.7,2.7,0,0,1,2.67-2.44,3.72,3.72,0,0,1,3.72,3.72,5.36,5.36,0,0,1-10.73,0V359.78a.35.35,0,0,0-.35-.35H1150a.35.35,0,0,0-.35.35v15.41A8.32,8.32,0,0,0,1158,383.5Z" transform="translate(-108 -359.42)"/><circle class="cls-1" cx="1027.13" cy="10.07" r="1.84"/><rect class="cls-1" x="1018.82" y="14.64" width="2.95" height="15.35" rx="0.35" ry="0.35"/><circle class="cls-1" cx="1077.74" cy="10.07" r="1.84"/><path class="cls-1" d="M1208.57,383.5a8.32,8.32,0,0,0,8.31-8.31,6.68,6.68,0,0,0-6.67-6.67,5.62,5.62,0,0,0-5.62,5.34.35.35,0,0,0,.35.37h2.24a.35.35,0,0,0,.35-.32,2.7,2.7,0,0,1,2.67-2.44,3.72,3.72,0,0,1,3.72,3.72,5.36,5.36,0,0,1-10.73,0V359.78a.35.35,0,0,0-.35-.35h-2.24a.35.35,0,0,0-.35.35v15.41A8.32,8.32,0,0,0,1208.57,383.5Z" transform="translate(-108 -359.42)"/><rect class="cls-1" x="1069.43" y="14.64" width="2.95" height="15.35" rx="0.35" ry="0.35"/><circle class="cls-1" cx="1057.32" cy="34.56" r="1.84"/><rect class="cls-1" x="1097.77" y="3.5" width="18.47" height="2.95" rx="0.35" ry="0.35"/><circle class="cls-1" cx="1107.93" cy="34.56" r="1.84"/><path class="cls-1" d="M1173.53,394a.35.35,0,0,0-.25-.11H1171a.35.35,0,0,0-.35.34,5.36,5.36,0,1,1-5.61-5.61.35.35,0,0,0,.34-.35V386a.36.36,0,0,0-.11-.25.34.34,0,0,0-.26-.1,8.31,8.31,0,1,0,8.59,8.59A.35.35,0,0,0,1173.53,394Z" transform="translate(-108 -359.42)"/><path class="cls-1" d="M1186,377.79a8.31,8.31,0,1,0-8.59-8.59.35.35,0,0,0,.35.37H1180a.35.35,0,0,0,.35-.34,5.36,5.36,0,1,1,5.61,5.61.35.35,0,0,0-.34.35v2.24a.35.35,0,0,0,.11.25A.34.34,0,0,0,1186,377.79Z" transform="translate(-108 -359.42)"/><rect class="cls-1" x="1113.29" y="14.64" width="2.95" height="15.35" rx="0.35" ry="0.35"/><path class="cls-1" d="M1107.35,383.5a8.32,8.32,0,0,0,8.31-8.31,6.68,6.68,0,0,0-6.67-6.67,5.62,5.62,0,0,0-5.62,5.34.35.35,0,0,0,.35.37H1106a.35.35,0,0,0,.35-.32,2.7,2.7,0,0,1,2.67-2.44,3.73,3.73,0,0,1,3.72,3.72,5.36,5.36,0,0,1-10.73,0V359.78a.35.35,0,0,0-.35-.35h-2.24a.35.35,0,0,0-.35.35v15.41A8.32,8.32,0,0,0,1107.35,383.5Z" transform="translate(-108 -359.42)"/><rect class="cls-1" x="968.2" y="14.64" width="2.95" height="15.35" rx="0.35" ry="0.35"/><circle class="cls-1" cx="976.51" cy="10.07" r="1.84"/><circle class="cls-1" cx="1006.71" cy="34.56" r="1.84"/><path class="cls-1" d="M1047,404h2.24a.35.35,0,0,0,.35-.35V388.28a8.31,8.31,0,1,0-16.62,0,6.68,6.68,0,0,0,6.67,6.67,5.62,5.62,0,0,0,5.62-5.34.35.35,0,0,0-.35-.37h-2.24a.35.35,0,0,0-.35.32,2.7,2.7,0,0,1-2.67,2.44,3.73,3.73,0,0,1-3.72-3.72,5.36,5.36,0,0,1,10.73,0v15.41A.35.35,0,0,0,1047,404Z" transform="translate(-108 -359.42)"/><rect class="cls-1" x="1012.07" y="14.64" width="2.95" height="15.35" rx="0.35" ry="0.35"/><rect class="cls-1" x="996.55" y="3.5" width="18.47" height="2.95" rx="0.35" ry="0.35"/><path class="cls-1" d="M1084.79,377.79a8.31,8.31,0,1,0-8.59-8.59.35.35,0,0,0,.35.37h2.24a.35.35,0,0,0,.35-.34,5.36,5.36,0,1,1,5.61,5.61.35.35,0,0,0-.34.35v2.24a.35.35,0,0,0,.11.25A.34.34,0,0,0,1084.79,377.79Z" transform="translate(-108 -359.42)"/><path class="cls-1" d="M1122.91,394a.35.35,0,0,0-.25-.11h-2.24a.35.35,0,0,0-.35.34,5.36,5.36,0,1,1-5.61-5.61.35.35,0,0,0,.34-.35V386a.36.36,0,0,0-.11-.25.34.34,0,0,0-.26-.1,8.31,8.31,0,1,0,8.59,8.59A.35.35,0,0,0,1122.91,394Z" transform="translate(-108 -359.42)"/><rect class="cls-1" x="1062.68" y="14.64" width="2.95" height="15.35" rx="0.35" ry="0.35"/><path class="cls-1" d="M1097.59,404h2.24a.35.35,0,0,0,.35-.35V388.28a8.31,8.31,0,0,0-16.62,0,6.68,6.68,0,0,0,6.67,6.67,5.62,5.62,0,0,0,5.62-5.34.35.35,0,0,0-.35-.37h-2.24a.35.35,0,0,0-.35.32,2.7,2.7,0,0,1-2.67,2.44,3.73,3.73,0,0,1-3.72-3.72,5.36,5.36,0,0,1,10.73,0v15.41A.35.35,0,0,0,1097.59,404Z" transform="translate(-108 -359.42)"/><rect class="cls-1" x="1047.16" y="3.5" width="18.47" height="2.95" rx="0.35" ry="0.35"/><rect class="cls-1" x="968.2" y="38.18" width="18.47" height="2.95" rx="0.35" ry="0.35"/><rect class="cls-1" x="968.2" y="45.99" width="18.47" height="2.95" rx="0.35" ry="0.35"/><path class="cls-1" d="M1300,404h2.24a.35.35,0,0,0,.35-.35V388.28a8.31,8.31,0,1,0-16.62,0,6.68,6.68,0,0,0,6.67,6.67,5.62,5.62,0,0,0,5.62-5.34.35.35,0,0,0-.35-.37h-2.24a.35.35,0,0,0-.35.32,2.7,2.7,0,0,1-2.67,2.44,3.72,3.72,0,0,1-3.72-3.72,5.36,5.36,0,0,1,10.73,0v15.41A.35.35,0,0,0,1300,404Z" transform="translate(-108 -359.42)"/><circle class="cls-1" cx="1178.96" cy="10.07" r="1.84"/><path class="cls-1" d="M1287.24,377.79a8.31,8.31,0,1,0-8.59-8.59.35.35,0,0,0,.35.37h2.24a.35.35,0,0,0,.35-.34,5.36,5.36,0,1,1,5.61,5.61.35.35,0,0,0-.34.35v2.24a.35.35,0,0,0,.11.25A.34.34,0,0,0,1287.24,377.79Z" transform="translate(-108 -359.42)"/><rect class="cls-1" x="1170.65" y="14.64" width="2.95" height="15.35" rx="0.35" ry="0.35"/><circle class="cls-1" cx="1209.15" cy="34.56" r="1.84"/><path class="cls-1" d="M1309.79,383.5a8.32,8.32,0,0,0,8.31-8.31,6.68,6.68,0,0,0-6.67-6.67,5.62,5.62,0,0,0-5.62,5.34.35.35,0,0,0,.35.37h2.24a.35.35,0,0,0,.35-.32,2.7,2.7,0,0,1,2.67-2.44,3.73,3.73,0,0,1,3.72,3.72,5.36,5.36,0,0,1-10.73,0V359.78a.35.35,0,0,0-.35-.35h-2.24a.35.35,0,0,0-.35.35v15.41A8.32,8.32,0,0,0,1309.79,383.5Z" transform="translate(-108 -359.42)"/><rect class="cls-1" x="1214.52" y="14.64" width="2.95" height="15.35" rx="0.35" ry="0.35"/><rect class="cls-1" x="1170.65" y="45.99" width="18.47" height="2.95" rx="0.35" ry="0.35"/><rect class="cls-1" x="1170.65" y="38.18" width="18.47" height="2.95" rx="0.35" ry="0.35"/><circle class="cls-1" cx="1259.77" cy="34.56" r="1.84"/><path class="cls-1" d="M1360.41,383.5a8.32,8.32,0,0,0,8.31-8.31,6.68,6.68,0,0,0-6.67-6.67,5.62,5.62,0,0,0-5.62,5.34.35.35,0,0,0,.35.37H1359a.35.35,0,0,0,.35-.32,2.7,2.7,0,0,1,2.67-2.44,3.73,3.73,0,0,1,3.72,3.72,5.36,5.36,0,0,1-10.73,0V359.78a.35.35,0,0,0-.35-.35h-2.24a.35.35,0,0,0-.35.35v15.41A8.32,8.32,0,0,0,1360.41,383.5Z" transform="translate(-108 -359.42)"/><rect class="cls-1" x="1265.13" y="14.64" width="2.95" height="15.35" rx="0.35" ry="0.35"/><path class="cls-1" d="M1325.36,394a.36.36,0,0,0-.25-.11h-2.24a.35.35,0,0,0-.35.34,5.36,5.36,0,1,1-5.61-5.61.35.35,0,0,0,.34-.35V386a.36.36,0,0,0-.11-.25.34.34,0,0,0-.26-.1,8.31,8.31,0,1,0,8.59,8.59A.35.35,0,0,0,1325.36,394Z" transform="translate(-108 -359.42)"/><rect class="cls-1" x="1249.61" y="3.5" width="18.47" height="2.95" rx="0.35" ry="0.35"/><rect class="cls-1" x="1069.43" y="45.99" width="18.47" height="2.95" rx="0.35" ry="0.35"/><rect class="cls-1" x="1199" y="3.5" width="18.47" height="2.95" rx="0.35" ry="0.35"/><rect class="cls-1" x="1221.26" y="14.64" width="2.95" height="15.35" rx="0.35" ry="0.35"/><rect class="cls-1" x="1148.39" y="3.5" width="18.47" height="2.95" rx="0.35" ry="0.35"/><path class="cls-1" d="M1274.75,394a.36.36,0,0,0-.25-.11h-2.24a.35.35,0,0,0-.35.34,5.36,5.36,0,1,1-5.61-5.61.35.35,0,0,0,.34-.35V386a.35.35,0,0,0-.11-.25.34.34,0,0,0-.26-.1,8.31,8.31,0,1,0,8.59,8.59A.35.35,0,0,0,1274.75,394Z" transform="translate(-108 -359.42)"/><circle class="cls-1" cx="1158.54" cy="34.56" r="1.84"/><path class="cls-1" d="M1198.82,404h2.24a.35.35,0,0,0,.35-.35V388.28a8.31,8.31,0,1,0-16.62,0,6.68,6.68,0,0,0,6.67,6.67,5.62,5.62,0,0,0,5.62-5.34.35.35,0,0,0-.35-.37h-2.24a.35.35,0,0,0-.35.32,2.7,2.7,0,0,1-2.67,2.44,3.73,3.73,0,0,1-3.72-3.72,5.36,5.36,0,0,1,10.73,0v15.41A.35.35,0,0,0,1198.82,404Z" transform="translate(-108 -359.42)"/><rect class="cls-1" x="1069.43" y="38.18" width="18.47" height="2.95" rx="0.35" ry="0.35"/><path class="cls-1" d="M1224.14,394a.35.35,0,0,0-.25-.11h-2.24a.35.35,0,0,0-.35.34,5.36,5.36,0,1,1-5.61-5.61.35.35,0,0,0,.34-.35V386a.36.36,0,0,0-.11-.25.34.34,0,0,0-.26-.1,8.31,8.31,0,1,0,8.59,8.59A.35.35,0,0,0,1224.14,394Z" transform="translate(-108 -359.42)"/><path class="cls-1" d="M1259.18,383.5a8.32,8.32,0,0,0,8.31-8.31,6.68,6.68,0,0,0-6.67-6.67,5.62,5.62,0,0,0-5.62,5.34.35.35,0,0,0,.35.37h2.24a.35.35,0,0,0,.35-.32,2.7,2.7,0,0,1,2.67-2.44,3.72,3.72,0,0,1,3.72,3.72,5.36,5.36,0,0,1-10.73,0V359.78a.35.35,0,0,0-.35-.35h-2.24a.35.35,0,0,0-.35.35v15.41A8.32,8.32,0,0,0,1259.18,383.5Z" transform="translate(-108 -359.42)"/><rect class="cls-1" x="1163.91" y="14.64" width="2.95" height="15.35" rx="0.35" ry="0.35"/><rect class="cls-1" x="1120.04" y="45.99" width="18.47" height="2.95" rx="0.35" ry="0.35"/><rect class="cls-1" x="1120.04" y="14.64" width="2.95" height="15.35" rx="0.35" ry="0.35"/><path class="cls-1" d="M1249.43,404h2.24a.35.35,0,0,0,.35-.35V388.28a8.31,8.31,0,0,0-16.62,0,6.68,6.68,0,0,0,6.67,6.67,5.62,5.62,0,0,0,5.62-5.34.35.35,0,0,0-.35-.37h-2.24a.35.35,0,0,0-.35.32,2.7,2.7,0,0,1-2.67,2.44,3.72,3.72,0,0,1-3.72-3.72,5.36,5.36,0,0,1,10.73,0v15.41A.35.35,0,0,0,1249.43,404Z" transform="translate(-108 -359.42)"/><rect class="cls-1" x="1120.04" y="38.18" width="18.47" height="2.95" rx="0.35" ry="0.35"/><path class="cls-1" d="M1236.63,377.79a8.31,8.31,0,1,0-8.59-8.59.35.35,0,0,0,.35.37h2.24a.35.35,0,0,0,.35-.34,5.36,5.36,0,1,1,5.61,5.61.35.35,0,0,0-.34.35v2.24a.35.35,0,0,0,.11.25A.34.34,0,0,0,1236.63,377.79Z" transform="translate(-108 -359.42)"/><circle class="cls-1" cx="1128.35" cy="10.07" r="1.84"/><path class="cls-1" d="M1072.3,394a.36.36,0,0,0-.25-.11h-2.24a.35.35,0,0,0-.35.34,5.36,5.36,0,1,1-5.61-5.61.35.35,0,0,0,.34-.35V386a.36.36,0,0,0-.11-.25.34.34,0,0,0-.26-.1,8.31,8.31,0,1,0,8.59,8.59A.36.36,0,0,0,1072.3,394Z" transform="translate(-108 -359.42)"/><rect class="cls-1" x="1879.21" y="45.99" width="18.47" height="2.95" rx="0.35" ry="0.35"/><rect class="cls-1" x="1879.21" y="38.18" width="18.47" height="2.95" rx="0.35" ry="0.35"/><path class="cls-1" d="M2008.6,404h2.24a.35.35,0,0,0,.35-.35V388.28a8.31,8.31,0,1,0-16.62,0,6.68,6.68,0,0,0,6.67,6.67,5.62,5.62,0,0,0,5.62-5.34.35.35,0,0,0-.35-.37h-2.24a.35.35,0,0,0-.35.32,2.7,2.7,0,0,1-2.67,2.44,3.73,3.73,0,0,1-3.72-3.72,5.36,5.36,0,0,1,10.73,0v15.41A.35.35,0,0,0,2008.6,404Z" transform="translate(-108 -359.42)"/><rect class="cls-1" x="1879.21" y="14.64" width="2.95" height="15.35" rx="0.35" ry="0.35"/><path class="cls-1" d="M2025.71,399.34a5.36,5.36,0,0,1-.25-10.72.35.35,0,0,0,.34-.35V386a.36.36,0,0,0-.11-.25.34.34,0,0,0-.26-.1,8.31,8.31,0,0,0,.28,16.62A8.4,8.4,0,0,0,2028,402v-3.16A5.33,5.33,0,0,1,2025.71,399.34Z" transform="translate(-108 -359.42)"/><circle class="cls-1" cx="1887.52" cy="10.07" r="1.84"/><path class="cls-1" d="M465.95,401.92h-2.24a.35.35,0,0,0-.35.35V409h2.95v-6.73A.35.35,0,0,0,465.95,401.92Z" transform="translate(-108 -359.42)"/><path class="cls-1" d="M162.28,401.92H160a.35.35,0,0,0-.35.35V409h2.95v-6.73A.35.35,0,0,0,162.28,401.92Z" transform="translate(-108 -359.42)"/><path class="cls-1" d="M364.73,401.92h-2.24a.35.35,0,0,0-.35.35V409h2.95v-6.73A.35.35,0,0,0,364.73,401.92Z" transform="translate(-108 -359.42)"/><circle class="cls-1" cx="1563.43" cy="34.56" r="1.84"/><path class="cls-1" d="M415.34,401.92H413.1a.35.35,0,0,0-.35.35V409h2.95v-6.73A.35.35,0,0,0,415.34,401.92Z" transform="translate(-108 -359.42)"/><path class="cls-1" d="M263.5,401.92h-2.24a.35.35,0,0,0-.35.35V409h2.95v-6.73A.35.35,0,0,0,263.5,401.92Z" transform="translate(-108 -359.42)"/><path class="cls-1" d="M2018.35,383.5a8.32,8.32,0,0,0,8.31-8.31,6.68,6.68,0,0,0-6.67-6.67,5.62,5.62,0,0,0-5.62,5.34.35.35,0,0,0,.35.37H2017a.35.35,0,0,0,.35-.32,2.7,2.7,0,0,1,2.67-2.44,3.73,3.73,0,0,1,3.72,3.72,5.36,5.36,0,0,1-10.73,0V359.78a.35.35,0,0,0-.35-.35h-2.24a.35.35,0,0,0-.35.35v15.41A8.32,8.32,0,0,0,2018.35,383.5Z" transform="translate(-108 -359.42)"/><path class="cls-1" d="M111.67,401.92h-2.24a.35.35,0,0,0-.35.35V409H112v-6.73A.35.35,0,0,0,111.67,401.92Z" transform="translate(-108 -359.42)"/><path class="cls-1" d="M212.89,401.92h-2.24a.35.35,0,0,0-.35.35V409h2.95v-6.73A.35.35,0,0,0,212.89,401.92Z" transform="translate(-108 -359.42)"/><path class="cls-1" d="M1995.8,377.79a8.31,8.31,0,1,0-8.59-8.59.35.35,0,0,0,.35.37h2.24a.35.35,0,0,0,.35-.34,5.36,5.36,0,1,1,5.61,5.61.35.35,0,0,0-.34.35v2.24a.35.35,0,0,0,.11.25A.34.34,0,0,0,1995.8,377.79Z" transform="translate(-108 -359.42)"/><path class="cls-1" d="M1967.74,383.5a8.32,8.32,0,0,0,8.31-8.31,6.68,6.68,0,0,0-6.67-6.67,5.62,5.62,0,0,0-5.62,5.34.35.35,0,0,0,.35.37h2.24a.35.35,0,0,0,.35-.32,2.7,2.7,0,0,1,2.67-2.44,3.73,3.73,0,0,1,3.72,3.72,5.36,5.36,0,0,1-10.73,0V359.78a.35.35,0,0,0-.35-.35h-2.24a.35.35,0,0,0-.35.35v15.41A8.32,8.32,0,0,0,1967.74,383.5Z" transform="translate(-108 -359.42)"/><path class="cls-1" d="M1907.37,404h2.24a.35.35,0,0,0,.35-.35V388.28a8.31,8.31,0,0,0-16.62,0A6.68,6.68,0,0,0,1900,395a5.62,5.62,0,0,0,5.62-5.34.35.35,0,0,0-.35-.37H1903a.35.35,0,0,0-.35.32A2.7,2.7,0,0,1,1900,392a3.72,3.72,0,0,1-3.72-3.72,5.36,5.36,0,0,1,10.73,0v15.41A.35.35,0,0,0,1907.37,404Z" transform="translate(-108 -359.42)"/><circle class="cls-1" cx="1917.71" cy="34.56" r="1.84"/><circle class="cls-1" cx="1867.1" cy="34.56" r="1.84"/><path class="cls-1" d="M1932.69,394a.36.36,0,0,0-.25-.11h-2.24a.35.35,0,0,0-.35.34,5.36,5.36,0,1,1-5.61-5.61.35.35,0,0,0,.34-.35V386a.36.36,0,0,0-.11-.25.34.34,0,0,0-.26-.1,8.31,8.31,0,1,0,8.59,8.59A.35.35,0,0,0,1932.69,394Z" transform="translate(-108 -359.42)"/><rect class="cls-1" x="1856.94" y="3.5" width="18.47" height="2.95" rx="0.35" ry="0.35"/><rect class="cls-1" x="1872.46" y="14.64" width="2.95" height="15.35" rx="0.35" ry="0.35"/><circle class="cls-1" cx="1836.91" cy="10.07" r="1.84"/><path class="cls-1" d="M1983.31,394a.36.36,0,0,0-.25-.11h-2.24a.35.35,0,0,0-.35.34,5.36,5.36,0,1,1-5.61-5.61.35.35,0,0,0,.34-.35V386a.36.36,0,0,0-.11-.25.34.34,0,0,0-.26-.1,8.31,8.31,0,1,0,8.59,8.59A.36.36,0,0,0,1983.31,394Z" transform="translate(-108 -359.42)"/><path class="cls-1" d="M2015.55,363.27v2.24a.35.35,0,0,0,.35.35H2028v-2.95h-12.09A.35.35,0,0,0,2015.55,363.27Z" transform="translate(-108 -359.42)"/><path class="cls-1" d="M1958,404h2.24a.35.35,0,0,0,.35-.35V388.28a8.31,8.31,0,1,0-16.62,0,6.68,6.68,0,0,0,6.67,6.67,5.62,5.62,0,0,0,5.62-5.34.35.35,0,0,0-.35-.37h-2.24a.35.35,0,0,0-.35.32,2.7,2.7,0,0,1-2.67,2.44,3.73,3.73,0,0,1-3.72-3.72,5.36,5.36,0,0,1,10.73,0v15.41A.35.35,0,0,0,1958,404Z" transform="translate(-108 -359.42)"/><path class="cls-1" d="M1945.19,377.79a8.31,8.31,0,1,0-8.59-8.59.35.35,0,0,0,.35.37h2.24a.35.35,0,0,0,.35-.34,5.36,5.36,0,1,1,5.61,5.61.35.35,0,0,0-.34.35v2.24a.35.35,0,0,0,.11.25A.34.34,0,0,0,1945.19,377.79Z" transform="translate(-108 -359.42)"/><rect class="cls-1" x="1828.6" y="38.18" width="18.47" height="2.95" rx="0.35" ry="0.35"/><rect class="cls-1" x="1828.6" y="45.99" width="18.47" height="2.95" rx="0.35" ry="0.35"/><rect class="cls-1" x="1828.6" y="14.64" width="2.95" height="15.35" rx="0.35" ry="0.35"/><path class="cls-1" d="M1528.79,401.92h-2.24a.35.35,0,0,0-.35.35V409h2.95v-6.73A.35.35,0,0,0,1528.79,401.92Z" transform="translate(-108 -359.42)"/><path class="cls-1" d="M1478.18,401.92h-2.24a.35.35,0,0,0-.35.35V409h2.95v-6.73A.35.35,0,0,0,1478.18,401.92Z" transform="translate(-108 -359.42)"/><path class="cls-1" d="M1630,401.92h-2.24a.35.35,0,0,0-.35.35V409h2.95v-6.73A.35.35,0,0,0,1630,401.92Z" transform="translate(-108 -359.42)"/><path class="cls-1" d="M1579.39,401.92h-2.24a.35.35,0,0,0-.35.35V409h2.95v-6.73A.35.35,0,0,0,1579.39,401.92Z" transform="translate(-108 -359.42)"/><path class="cls-1" d="M1326.34,401.92h-2.24a.35.35,0,0,0-.35.35V409h2.95v-6.73A.35.35,0,0,0,1326.34,401.92Z" transform="translate(-108 -359.42)"/><path class="cls-1" d="M1377,401.92h-2.24a.35.35,0,0,0-.35.35V409h2.95v-6.73A.35.35,0,0,0,1377,401.92Z" transform="translate(-108 -359.42)"/><path class="cls-1" d="M1427.57,401.92h-2.24a.35.35,0,0,0-.35.35V409h2.95v-6.73A.35.35,0,0,0,1427.57,401.92Z" transform="translate(-108 -359.42)"/><path class="cls-1" d="M1275.73,401.92h-2.24a.35.35,0,0,0-.35.35V409h2.95v-6.73A.35.35,0,0,0,1275.73,401.92Z" transform="translate(-108 -359.42)"/><path class="cls-1" d="M1680.61,401.92h-2.24a.35.35,0,0,0-.35.35V409H1681v-6.73A.35.35,0,0,0,1680.61,401.92Z" transform="translate(-108 -359.42)"/><path class="cls-1" d="M1933.67,401.92h-2.24a.35.35,0,0,0-.35.35V409H1934v-6.73A.35.35,0,0,0,1933.67,401.92Z" transform="translate(-108 -359.42)"/><path class="cls-1" d="M1984.29,401.92H1982a.35.35,0,0,0-.35.35V409h2.95v-6.73A.35.35,0,0,0,1984.29,401.92Z" transform="translate(-108 -359.42)"/><path class="cls-1" d="M1883.06,401.92h-2.24a.35.35,0,0,0-.35.35V409h2.95v-6.73A.35.35,0,0,0,1883.06,401.92Z" transform="translate(-108 -359.42)"/><path class="cls-1" d="M1832.45,401.92h-2.24a.35.35,0,0,0-.35.35V409h2.95v-6.73A.35.35,0,0,0,1832.45,401.92Z" transform="translate(-108 -359.42)"/><path class="cls-1" d="M1731.23,401.92H1729a.35.35,0,0,0-.35.35V409h2.95v-6.73A.35.35,0,0,0,1731.23,401.92Z" transform="translate(-108 -359.42)"/><path class="cls-1" d="M1781.84,401.92h-2.24a.35.35,0,0,0-.35.35V409h2.95v-6.73A.35.35,0,0,0,1781.84,401.92Z" transform="translate(-108 -359.42)"/><path class="cls-1" d="M567.16,401.92h-2.24a.35.35,0,0,0-.35.35V409h2.95v-6.73A.35.35,0,0,0,567.16,401.92Z" transform="translate(-108 -359.42)"/><path class="cls-1" d="M769.61,401.92h-2.24a.35.35,0,0,0-.35.35V409H770v-6.73A.35.35,0,0,0,769.61,401.92Z" transform="translate(-108 -359.42)"/><path class="cls-1" d="M719,401.92h-2.24a.35.35,0,0,0-.35.35V409h2.95v-6.73A.35.35,0,0,0,719,401.92Z" transform="translate(-108 -359.42)"/><path class="cls-1" d="M1225.12,401.92h-2.24a.35.35,0,0,0-.35.35V409h2.95v-6.73A.35.35,0,0,0,1225.12,401.92Z" transform="translate(-108 -359.42)"/><path class="cls-1" d="M668.39,401.92h-2.24a.35.35,0,0,0-.35.35V409h2.95v-6.73A.35.35,0,0,0,668.39,401.92Z" transform="translate(-108 -359.42)"/><path class="cls-1" d="M516.56,401.92h-2.24a.35.35,0,0,0-.35.35V409h2.95v-6.73A.35.35,0,0,0,516.56,401.92Z" transform="translate(-108 -359.42)"/><path class="cls-1" d="M870.83,401.92H868.6a.35.35,0,0,0-.35.35V409h2.95v-6.73A.35.35,0,0,0,870.83,401.92Z" transform="translate(-108 -359.42)"/><path class="cls-1" d="M617.77,401.92h-2.24a.35.35,0,0,0-.35.35V409h2.95v-6.73A.35.35,0,0,0,617.77,401.92Z" transform="translate(-108 -359.42)"/><path class="cls-1" d="M820.22,401.92H818a.35.35,0,0,0-.35.35V409h2.95v-6.73A.35.35,0,0,0,820.22,401.92Z" transform="translate(-108 -359.42)"/><path class="cls-1" d="M1123.89,401.92h-2.24a.35.35,0,0,0-.35.35V409h2.95v-6.73A.35.35,0,0,0,1123.89,401.92Z" transform="translate(-108 -359.42)"/><path class="cls-1" d="M1073.28,401.92H1071a.35.35,0,0,0-.35.35V409h2.95v-6.73A.35.35,0,0,0,1073.28,401.92Z" transform="translate(-108 -359.42)"/><path class="cls-1" d="M1174.51,401.92h-2.24a.35.35,0,0,0-.35.35V409h2.95v-6.73A.35.35,0,0,0,1174.51,401.92Z" transform="translate(-108 -359.42)"/><path class="cls-1" d="M1022.67,401.92h-2.24a.35.35,0,0,0-.35.35V409H1023v-6.73A.35.35,0,0,0,1022.67,401.92Z" transform="translate(-108 -359.42)"/><path class="cls-1" d="M972.06,401.92h-2.24a.35.35,0,0,0-.35.35V409h2.95v-6.73A.35.35,0,0,0,972.06,401.92Z" transform="translate(-108 -359.42)"/><path class="cls-1" d="M921.45,401.92h-2.24a.35.35,0,0,0-.35.35V409h2.95v-6.73A.35.35,0,0,0,921.45,401.92Z" transform="translate(-108 -359.42)"/><path class="cls-1" d="M314.11,401.92h-2.24a.35.35,0,0,0-.35.35V409h2.95v-6.73A.35.35,0,0,0,314.11,401.92Z" transform="translate(-108 -359.42)"/><rect class="cls-1" x="1654.5" y="3.5" width="18.47" height="2.95" rx="0.35" ry="0.35"/><path class="cls-1" d="M1730.25,394a.35.35,0,0,0-.25-.11h-2.24a.35.35,0,0,0-.35.34,5.36,5.36,0,1,1-5.61-5.61.35.35,0,0,0,.34-.35V386a.36.36,0,0,0-.11-.25.34.34,0,0,0-.26-.1,8.31,8.31,0,1,0,8.59,8.59A.35.35,0,0,0,1730.25,394Z" transform="translate(-108 -359.42)"/><rect class="cls-1" x="1670.02" y="14.64" width="2.95" height="15.35" rx="0.35" ry="0.35"/><rect class="cls-1" x="1777.98" y="38.18" width="18.47" height="2.95" rx="0.35" ry="0.35"/><rect class="cls-1" x="1575.54" y="45.99" width="18.47" height="2.95" rx="0.35" ry="0.35"/><path class="cls-1" d="M1692.13,377.79a8.31,8.31,0,1,0-8.59-8.59.35.35,0,0,0,.35.37h2.24a.35.35,0,0,0,.35-.34,5.36,5.36,0,1,1,5.61,5.61.35.35,0,0,0-.34.35v2.24a.35.35,0,0,0,.11.25A.34.34,0,0,0,1692.13,377.79Z" transform="translate(-108 -359.42)"/><rect class="cls-1" x="1575.54" y="38.18" width="18.47" height="2.95" rx="0.35" ry="0.35"/><path class="cls-1" d="M1704.92,404h2.24a.35.35,0,0,0,.35-.35V388.28a8.31,8.31,0,1,0-16.62,0,6.68,6.68,0,0,0,6.67,6.67,5.62,5.62,0,0,0,5.62-5.34.35.35,0,0,0-.35-.37h-2.24a.35.35,0,0,0-.35.32,2.7,2.7,0,0,1-2.67,2.44,3.73,3.73,0,0,1-3.72-3.72,5.36,5.36,0,0,1,10.73,0v15.41A.35.35,0,0,0,1704.92,404Z" transform="translate(-108 -359.42)"/><rect class="cls-1" x="1626.15" y="45.99" width="18.47" height="2.95" rx="0.35" ry="0.35"/><rect class="cls-1" x="1626.15" y="38.18" width="18.47" height="2.95" rx="0.35" ry="0.35"/><path class="cls-1" d="M1765.29,383.5a8.32,8.32,0,0,0,8.31-8.31,6.68,6.68,0,0,0-6.67-6.67,5.62,5.62,0,0,0-5.62,5.34.35.35,0,0,0,.35.37h2.24a.35.35,0,0,0,.35-.32,2.7,2.7,0,0,1,2.67-2.44,3.72,3.72,0,0,1,3.72,3.72,5.36,5.36,0,0,1-10.73,0V359.78a.35.35,0,0,0-.35-.35h-2.24a.35.35,0,0,0-.35.35v15.41A8.32,8.32,0,0,0,1765.29,383.5Z" transform="translate(-108 -359.42)"/><path class="cls-1" d="M1755.54,404h2.24a.35.35,0,0,0,.35-.35V388.28a8.31,8.31,0,0,0-16.62,0,6.68,6.68,0,0,0,6.67,6.67,5.62,5.62,0,0,0,5.62-5.34.35.35,0,0,0-.35-.37h-2.24a.35.35,0,0,0-.35.32,2.7,2.7,0,0,1-2.67,2.44,3.73,3.73,0,0,1-3.72-3.72,5.36,5.36,0,0,1,10.73,0v15.41A.35.35,0,0,0,1755.54,404Z" transform="translate(-108 -359.42)"/><rect class="cls-1" x="1626.15" y="14.64" width="2.95" height="15.35" rx="0.35" ry="0.35"/><path class="cls-1" d="M1780.86,394a.35.35,0,0,0-.25-.11h-2.24a.35.35,0,0,0-.35.34,5.36,5.36,0,1,1-5.61-5.61.35.35,0,0,0,.34-.35V386a.36.36,0,0,0-.11-.25.34.34,0,0,0-.26-.1,8.31,8.31,0,1,0,8.59,8.59A.35.35,0,0,0,1780.86,394Z" transform="translate(-108 -359.42)"/><path class="cls-1" d="M1742.74,377.79a8.31,8.31,0,1,0-8.59-8.59.35.35,0,0,0,.35.37h2.24a.35.35,0,0,0,.35-.34,5.36,5.36,0,1,1,5.61,5.61.35.35,0,0,0-.34.35v2.24a.35.35,0,0,0,.11.25A.34.34,0,0,0,1742.74,377.79Z" transform="translate(-108 -359.42)"/><circle class="cls-1" cx="1634.46" cy="10.07" r="1.84"/><rect class="cls-1" x="1524.92" y="45.99" width="18.47" height="2.95" rx="0.35" ry="0.35"/><circle class="cls-1" cx="1583.85" cy="10.07" r="1.84"/><rect class="cls-1" x="1524.92" y="38.18" width="18.47" height="2.95" rx="0.35" ry="0.35"/><circle class="cls-1" cx="1533.24" cy="10.07" r="1.84"/><path class="cls-1" d="M1654.31,404h2.24a.35.35,0,0,0,.35-.35V388.28a8.31,8.31,0,0,0-16.62,0A6.68,6.68,0,0,0,1647,395a5.62,5.62,0,0,0,5.62-5.34.35.35,0,0,0-.35-.37H1650a.35.35,0,0,0-.35.32A2.7,2.7,0,0,1,1647,392a3.72,3.72,0,0,1-3.72-3.72,5.36,5.36,0,0,1,10.73,0v15.41A.35.35,0,0,0,1654.31,404Z" transform="translate(-108 -359.42)"/><path class="cls-1" d="M1664.07,383.5a8.32,8.32,0,0,0,8.31-8.31,6.68,6.68,0,0,0-6.67-6.67,5.62,5.62,0,0,0-5.62,5.34.35.35,0,0,0,.35.37h2.24a.35.35,0,0,0,.35-.32,2.7,2.7,0,0,1,2.67-2.44,3.73,3.73,0,0,1,3.72,3.72,5.36,5.36,0,0,1-10.73,0V359.78a.35.35,0,0,0-.35-.35h-2.24a.35.35,0,0,0-.35.35v15.41A8.32,8.32,0,0,0,1664.07,383.5Z" transform="translate(-108 -359.42)"/><rect class="cls-1" x="1524.92" y="14.64" width="2.95" height="15.35" rx="0.35" ry="0.35"/><path class="cls-1" d="M1641.52,377.79a8.31,8.31,0,1,0-8.59-8.59.35.35,0,0,0,.35.37h2.24a.35.35,0,0,0,.35-.34,5.36,5.36,0,1,1,5.61,5.61.35.35,0,0,0-.34.35v2.24a.35.35,0,0,0,.11.25A.34.34,0,0,0,1641.52,377.79Z" transform="translate(-108 -359.42)"/><circle class="cls-1" cx="1614.04" cy="34.56" r="1.84"/><path class="cls-1" d="M1714.68,383.5a8.32,8.32,0,0,0,8.31-8.31,6.68,6.68,0,0,0-6.67-6.67,5.62,5.62,0,0,0-5.62,5.34.35.35,0,0,0,.35.37h2.24a.35.35,0,0,0,.35-.32,2.7,2.7,0,0,1,2.67-2.44,3.72,3.72,0,0,1,3.72,3.72,5.36,5.36,0,0,1-10.73,0V359.78a.35.35,0,0,0-.35-.35h-2.24a.35.35,0,0,0-.35.35v15.41A8.32,8.32,0,0,0,1714.68,383.5Z" transform="translate(-108 -359.42)"/><rect class="cls-1" x="1575.54" y="14.64" width="2.95" height="15.35" rx="0.35" ry="0.35"/><rect class="cls-1" x="1619.4" y="14.64" width="2.95" height="15.35" rx="0.35" ry="0.35"/><rect class="cls-1" x="1603.88" y="3.5" width="18.47" height="2.95" rx="0.35" ry="0.35"/><path class="cls-1" d="M1679.63,394a.36.36,0,0,0-.25-.11h-2.24a.35.35,0,0,0-.35.34,5.36,5.36,0,1,1-5.61-5.61.35.35,0,0,0,.34-.35V386a.36.36,0,0,0-.11-.25.34.34,0,0,0-.26-.1,8.31,8.31,0,1,0,8.59,8.59A.35.35,0,0,0,1679.63,394Z" transform="translate(-108 -359.42)"/><circle class="cls-1" cx="1664.65" cy="34.56" r="1.84"/><rect class="cls-1" x="1727.37" y="38.18" width="18.47" height="2.95" rx="0.35" ry="0.35"/><path class="cls-1" d="M1856.76,404H1859a.35.35,0,0,0,.35-.35V388.28a8.31,8.31,0,0,0-16.62,0,6.68,6.68,0,0,0,6.67,6.67,5.62,5.62,0,0,0,5.62-5.34.35.35,0,0,0-.35-.37h-2.24a.35.35,0,0,0-.35.32,2.7,2.7,0,0,1-2.67,2.44,3.72,3.72,0,0,1-3.72-3.72,5.36,5.36,0,0,1,10.73,0v15.41A.35.35,0,0,0,1856.76,404Z" transform="translate(-108 -359.42)"/><rect class="cls-1" x="1806.33" y="3.5" width="18.47" height="2.95" rx="0.35" ry="0.35"/><path class="cls-1" d="M1882.08,394a.36.36,0,0,0-.25-.11h-2.24a.35.35,0,0,0-.35.34,5.36,5.36,0,1,1-5.61-5.61.35.35,0,0,0,.34-.35V386a.35.35,0,0,0-.11-.25.34.34,0,0,0-.26-.1,8.31,8.31,0,1,0,8.59,8.59A.35.35,0,0,0,1882.08,394Z" transform="translate(-108 -359.42)"/><circle class="cls-1" cx="1735.68" cy="10.07" r="1.84"/><rect class="cls-1" x="1727.37" y="45.99" width="18.47" height="2.95" rx="0.35" ry="0.35"/><path class="cls-1" d="M1844,377.79a8.31,8.31,0,1,0-8.59-8.59.35.35,0,0,0,.35.37H1838a.35.35,0,0,0,.35-.34,5.36,5.36,0,1,1,5.61,5.61.35.35,0,0,0-.34.35v2.24a.35.35,0,0,0,.11.25A.34.34,0,0,0,1844,377.79Z" transform="translate(-108 -359.42)"/><rect class="cls-1" x="1727.37" y="14.64" width="2.95" height="15.35" rx="0.35" ry="0.35"/><path class="cls-1" d="M1894.57,377.79a8.31,8.31,0,1,0-8.59-8.59.35.35,0,0,0,.35.37h2.24a.35.35,0,0,0,.35-.34,5.36,5.36,0,1,1,5.61,5.61.35.35,0,0,0-.34.35v2.24a.35.35,0,0,0,.11.25A.34.34,0,0,0,1894.57,377.79Z" transform="translate(-108 -359.42)"/><circle class="cls-1" cx="1786.29" cy="10.07" r="1.84"/><rect class="cls-1" x="1821.85" y="14.64" width="2.95" height="15.35" rx="0.35" ry="0.35"/><rect class="cls-1" x="1777.98" y="45.99" width="18.47" height="2.95" rx="0.35" ry="0.35"/><circle class="cls-1" cx="1816.49" cy="34.56" r="1.84"/><path class="cls-1" d="M1917.13,383.5a8.32,8.32,0,0,0,8.31-8.31,6.68,6.68,0,0,0-6.67-6.67,5.62,5.62,0,0,0-5.62,5.34.35.35,0,0,0,.35.37h2.24a.35.35,0,0,0,.35-.32,2.7,2.7,0,0,1,2.67-2.44,3.73,3.73,0,0,1,3.72,3.72,5.36,5.36,0,0,1-10.73,0V359.78a.35.35,0,0,0-.35-.35h-2.24a.35.35,0,0,0-.35.35v15.41A8.32,8.32,0,0,0,1917.13,383.5Z" transform="translate(-108 -359.42)"/><rect class="cls-1" x="1777.98" y="14.64" width="2.95" height="15.35" rx="0.35" ry="0.35"/><path class="cls-1" d="M1793.35,377.79a8.31,8.31,0,1,0-8.59-8.59.35.35,0,0,0,.35.37h2.24a.35.35,0,0,0,.35-.34,5.36,5.36,0,1,1,5.61,5.61.35.35,0,0,0-.34.35v2.24a.35.35,0,0,0,.11.25A.34.34,0,0,0,1793.35,377.79Z" transform="translate(-108 -359.42)"/><circle class="cls-1" cx="1685.07" cy="10.07" r="1.84"/><rect class="cls-1" x="1676.76" y="14.64" width="2.95" height="15.35" rx="0.35" ry="0.35"/><rect class="cls-1" x="1676.76" y="45.99" width="18.47" height="2.95" rx="0.35" ry="0.35"/><rect class="cls-1" x="1705.11" y="3.5" width="18.47" height="2.95" rx="0.35" ry="0.35"/><path class="cls-1" d="M1815.9,383.5a8.32,8.32,0,0,0,8.31-8.31,6.68,6.68,0,0,0-6.67-6.67,5.62,5.62,0,0,0-5.62,5.34.35.35,0,0,0,.35.37h2.24a.35.35,0,0,0,.35-.32,2.7,2.7,0,0,1,2.67-2.44,3.72,3.72,0,0,1,3.72,3.72,5.36,5.36,0,0,1-10.73,0V359.78a.35.35,0,0,0-.35-.35h-2.24a.35.35,0,0,0-.35.35v15.41A8.32,8.32,0,0,0,1815.9,383.5Z" transform="translate(-108 -359.42)"/><rect class="cls-1" x="1720.63" y="14.64" width="2.95" height="15.35" rx="0.35" ry="0.35"/><circle class="cls-1" cx="1715.26" cy="34.56" r="1.84"/><rect class="cls-1" x="1755.72" y="3.5" width="18.47" height="2.95" rx="0.35" ry="0.35"/><path class="cls-1" d="M1866.52,383.5a8.32,8.32,0,0,0,8.31-8.31,6.68,6.68,0,0,0-6.67-6.67,5.62,5.62,0,0,0-5.62,5.34.35.35,0,0,0,.35.37h2.24a.35.35,0,0,0,.35-.32,2.7,2.7,0,0,1,2.67-2.44,3.72,3.72,0,0,1,3.72,3.72,5.36,5.36,0,0,1-10.73,0V359.78a.35.35,0,0,0-.35-.35h-2.24a.35.35,0,0,0-.35.35v15.41A8.32,8.32,0,0,0,1866.52,383.5Z" transform="translate(-108 -359.42)"/><rect class="cls-1" x="1771.24" y="14.64" width="2.95" height="15.35" rx="0.35" ry="0.35"/><circle class="cls-1" cx="1765.88" cy="34.56" r="1.84"/><path class="cls-1" d="M1831.47,394a.35.35,0,0,0-.25-.11H1829a.35.35,0,0,0-.35.34,5.36,5.36,0,1,1-5.61-5.61.35.35,0,0,0,.34-.35V386a.35.35,0,0,0-.11-.25.34.34,0,0,0-.26-.1,8.31,8.31,0,1,0,8.59,8.59A.35.35,0,0,0,1831.47,394Z" transform="translate(-108 -359.42)"/><rect class="cls-1" x="1676.76" y="38.18" width="18.47" height="2.95" rx="0.35" ry="0.35"/><path class="cls-1" d="M1806.15,404h2.24a.35.35,0,0,0,.35-.35V388.28a8.31,8.31,0,1,0-16.62,0,6.68,6.68,0,0,0,6.67,6.67,5.62,5.62,0,0,0,5.62-5.34.35.35,0,0,0-.35-.37h-2.24a.35.35,0,0,0-.35.32,2.7,2.7,0,0,1-2.67,2.44,3.72,3.72,0,0,1-3.72-3.72,5.36,5.36,0,0,1,10.73,0v15.41A.35.35,0,0,0,1806.15,404Z" transform="translate(-108 -359.42)"/><path class="cls-1" d="M145.16,406.62a5.36,5.36,0,0,1,4.45,2.38h3.29a8.3,8.3,0,0,0-15.51,0h3.31A5.34,5.34,0,0,1,145.16,406.62Z" transform="translate(-108 -359.42)"/><rect class="cls-1" x="158.42" y="38.18" width="18.47" height="2.95" rx="0.35" ry="0.35"/><path class="cls-1" d="M297.57,383.5a8.32,8.32,0,0,0,8.31-8.31,6.68,6.68,0,0,0-6.67-6.67,5.62,5.62,0,0,0-5.62,5.34.35.35,0,0,0,.35.37h2.24a.35.35,0,0,0,.35-.32,2.7,2.7,0,0,1,2.67-2.44,3.72,3.72,0,0,1,3.72,3.72,5.36,5.36,0,0,1-10.73,0V359.78a.35.35,0,0,0-.35-.35h-2.24a.35.35,0,0,0-.35.35v15.41A8.32,8.32,0,0,0,297.57,383.5Z" transform="translate(-108 -359.42)"/><rect class="cls-1" x="158.42" y="45.99" width="18.47" height="2.95" rx="0.35" ry="0.35"/><path class="cls-1" d="M275,377.79a8.31,8.31,0,1,0-8.59-8.59.35.35,0,0,0,.35.37H269a.35.35,0,0,0,.35-.34,5.36,5.36,0,1,1,5.61,5.61.35.35,0,0,0-.34.35v2.24a.35.35,0,0,0,.11.25A.34.34,0,0,0,275,377.79Z" transform="translate(-108 -359.42)"/><path class="cls-1" d="M313.13,394a.35.35,0,0,0-.25-.11h-2.24a.35.35,0,0,0-.35.34,5.36,5.36,0,1,1-5.61-5.61.35.35,0,0,0,.34-.35V386a.36.36,0,0,0-.11-.25.34.34,0,0,0-.26-.1,8.31,8.31,0,1,0,8.59,8.59A.35.35,0,0,0,313.13,394Z" transform="translate(-108 -359.42)"/><rect class="cls-1" x="158.42" y="14.64" width="2.95" height="15.35" rx="0.35" ry="0.35"/><circle class="cls-1" cx="166.73" cy="10.07" r="1.84"/><path class="cls-1" d="M287.81,404h2.24a.35.35,0,0,0,.35-.35V388.28a8.31,8.31,0,0,0-16.62,0,6.68,6.68,0,0,0,6.67,6.67,5.62,5.62,0,0,0,5.62-5.34.35.35,0,0,0-.35-.37h-2.24a.35.35,0,0,0-.35.32,2.7,2.7,0,0,1-2.67,2.44,3.72,3.72,0,0,1-3.72-3.72,5.36,5.36,0,0,1,10.73,0v15.41A.35.35,0,0,0,287.81,404Z" transform="translate(-108 -359.42)"/><circle class="cls-1" cx="217.35" cy="10.07" r="1.84"/><rect class="cls-1" x="209.04" y="14.64" width="2.95" height="15.35" rx="0.35" ry="0.35"/><rect class="cls-1" x="237.38" y="3.5" width="18.47" height="2.95" rx="0.35" ry="0.35"/><path class="cls-1" d="M325.63,377.79a8.31,8.31,0,1,0-8.59-8.59.35.35,0,0,0,.35.37h2.24a.35.35,0,0,0,.35-.34,5.36,5.36,0,1,1,5.61,5.61.35.35,0,0,0-.34.35v2.24a.35.35,0,0,0,.11.25A.34.34,0,0,0,325.63,377.79Z" transform="translate(-108 -359.42)"/><path class="cls-1" d="M348.18,383.5a8.32,8.32,0,0,0,8.31-8.31,6.68,6.68,0,0,0-6.67-6.67,5.62,5.62,0,0,0-5.62,5.34.35.35,0,0,0,.35.37h2.24a.35.35,0,0,0,.35-.32,2.7,2.7,0,0,1,2.67-2.44,3.72,3.72,0,0,1,3.72,3.72,5.36,5.36,0,0,1-10.73,0V359.78a.35.35,0,0,0-.35-.35h-2.24a.35.35,0,0,0-.35.35v15.41A8.32,8.32,0,0,0,348.18,383.5Z" transform="translate(-108 -359.42)"/><rect class="cls-1" x="252.9" y="14.64" width="2.95" height="15.35" rx="0.35" ry="0.35"/><circle class="cls-1" cx="247.54" cy="34.56" r="1.84"/><rect class="cls-1" x="209.04" y="45.99" width="18.47" height="2.95" rx="0.35" ry="0.35"/><rect class="cls-1" x="107.81" y="14.64" width="2.95" height="15.35" rx="0.35" ry="0.35"/><circle class="cls-1" cx="116.12" cy="10.07" r="1.84"/><path class="cls-1" d="M247,383.5a8.32,8.32,0,0,0,8.31-8.31,6.68,6.68,0,0,0-6.67-6.67,5.62,5.62,0,0,0-5.62,5.34.35.35,0,0,0,.35.37h2.24a.35.35,0,0,0,.35-.32,2.7,2.7,0,0,1,2.67-2.44,3.72,3.72,0,0,1,3.72,3.72,5.36,5.36,0,0,1-10.73,0V359.78a.35.35,0,0,0-.35-.35H239a.35.35,0,0,0-.35.35v15.41A8.32,8.32,0,0,0,247,383.5Z" transform="translate(-108 -359.42)"/><circle class="cls-1" cx="146.31" cy="34.56" r="1.84"/><path class="cls-1" d="M224.4,377.79a8.31,8.31,0,1,0-8.59-8.59.35.35,0,0,0,.35.37h2.24a.35.35,0,0,0,.35-.34,5.36,5.36,0,1,1,5.61,5.61.35.35,0,0,0-.34.35v2.24a.35.35,0,0,0,.11.25A.34.34,0,0,0,224.4,377.79Z" transform="translate(-108 -359.42)"/><rect class="cls-1" x="136.16" y="3.5" width="18.47" height="2.95" rx="0.35" ry="0.35"/><rect class="cls-1" x="151.68" y="14.64" width="2.95" height="15.35" rx="0.35" ry="0.35"/><rect class="cls-1" x="186.77" y="3.5" width="18.47" height="2.95" rx="0.35" ry="0.35"/><circle class="cls-1" cx="196.93" cy="34.56" r="1.84"/><path class="cls-1" d="M262.52,394a.35.35,0,0,0-.25-.11H260a.35.35,0,0,0-.35.34,5.36,5.36,0,1,1-5.61-5.61.35.35,0,0,0,.34-.35V386a.36.36,0,0,0-.11-.25.34.34,0,0,0-.26-.1,8.31,8.31,0,1,0,8.59,8.59A.35.35,0,0,0,262.52,394Z" transform="translate(-108 -359.42)"/><rect class="cls-1" x="202.29" y="14.64" width="2.95" height="15.35" rx="0.35" ry="0.35"/><rect class="cls-1" x="107.81" y="38.18" width="18.47" height="2.95" rx="0.35" ry="0.35"/><rect class="cls-1" x="107.81" y="45.99" width="18.47" height="2.95" rx="0.35" ry="0.35"/><rect class="cls-1" x="917.59" y="38.18" width="18.47" height="2.95" rx="0.35" ry="0.35"/><rect class="cls-1" x="389.22" y="3.5" width="18.47" height="2.95" rx="0.35" ry="0.35"/><circle class="cls-1" cx="318.57" cy="10.07" r="1.84"/><path class="cls-1" d="M426.85,377.79a8.31,8.31,0,1,0-8.59-8.59.35.35,0,0,0,.35.37h2.24a.35.35,0,0,0,.35-.34,5.36,5.36,0,1,1,5.61,5.61.35.35,0,0,0-.34.35v2.24a.35.35,0,0,0,.11.25A.34.34,0,0,0,426.85,377.79Z" transform="translate(-108 -359.42)"/><rect class="cls-1" x="310.26" y="45.99" width="18.47" height="2.95" rx="0.35" ry="0.35"/><rect class="cls-1" x="310.26" y="14.64" width="2.95" height="15.35" rx="0.35" ry="0.35"/><circle class="cls-1" cx="348.76" cy="34.56" r="1.84"/><path class="cls-1" d="M449.4,383.5a8.32,8.32,0,0,0,8.31-8.31,6.68,6.68,0,0,0-6.67-6.67,5.62,5.62,0,0,0-5.62,5.34.35.35,0,0,0,.35.37H448a.35.35,0,0,0,.35-.32,2.7,2.7,0,0,1,2.67-2.44,3.73,3.73,0,0,1,3.72,3.72,5.36,5.36,0,0,1-10.73,0V359.78a.35.35,0,0,0-.35-.35h-2.24a.35.35,0,0,0-.35.35v15.41A8.32,8.32,0,0,0,449.4,383.5Z" transform="translate(-108 -359.42)"/><rect class="cls-1" x="310.26" y="38.18" width="18.47" height="2.95" rx="0.35" ry="0.35"/><path class="cls-1" d="M465,394a.36.36,0,0,0-.25-.11h-2.24a.35.35,0,0,0-.35.34,5.36,5.36,0,1,1-5.61-5.61.35.35,0,0,0,.34-.35V386a.36.36,0,0,0-.11-.25.34.34,0,0,0-.26-.1,8.31,8.31,0,1,0,8.59,8.59A.35.35,0,0,0,465,394Z" transform="translate(-108 -359.42)"/><path class="cls-1" d="M500,383.5a8.32,8.32,0,0,0,8.31-8.31,6.68,6.68,0,0,0-6.67-6.67,5.62,5.62,0,0,0-5.62,5.34.35.35,0,0,0,.35.37h2.24a.35.35,0,0,0,.35-.32,2.7,2.7,0,0,1,2.67-2.44,3.72,3.72,0,0,1,3.72,3.72,5.36,5.36,0,0,1-10.73,0V359.78a.35.35,0,0,0-.35-.35h-2.24a.35.35,0,0,0-.35.35v15.41A8.32,8.32,0,0,0,500,383.5Z" transform="translate(-108 -359.42)"/><rect class="cls-1" x="360.87" y="14.64" width="2.95" height="15.35" rx="0.35" ry="0.35"/><circle class="cls-1" cx="399.37" cy="34.56" r="1.84"/><path class="cls-1" d="M211.91,394a.35.35,0,0,0-.25-.11h-2.24a.35.35,0,0,0-.35.34,5.36,5.36,0,1,1-5.61-5.61.35.35,0,0,0,.34-.35V386a.36.36,0,0,0-.11-.25.34.34,0,0,0-.26-.1,8.31,8.31,0,1,0,8.59,8.59A.35.35,0,0,0,211.91,394Z" transform="translate(-108 -359.42)"/><rect class="cls-1" x="354.13" y="14.64" width="2.95" height="15.35" rx="0.35" ry="0.35"/><path class="cls-1" d="M439.65,404h2.24a.35.35,0,0,0,.35-.35V388.28a8.31,8.31,0,0,0-16.62,0,6.68,6.68,0,0,0,6.67,6.67,5.62,5.62,0,0,0,5.62-5.34.35.35,0,0,0-.35-.37h-2.24a.35.35,0,0,0-.35.32,2.7,2.7,0,0,1-2.67,2.44,3.72,3.72,0,0,1-3.72-3.72,5.36,5.36,0,0,1,10.73,0v15.41A.35.35,0,0,0,439.65,404Z" transform="translate(-108 -359.42)"/><rect class="cls-1" x="404.74" y="14.64" width="2.95" height="15.35" rx="0.35" ry="0.35"/><circle class="cls-1" cx="298.15" cy="34.56" r="1.84"/><rect class="cls-1" x="209.04" y="38.18" width="18.47" height="2.95" rx="0.35" ry="0.35"/><rect class="cls-1" x="259.65" y="14.64" width="2.95" height="15.35" rx="0.35" ry="0.35"/><path class="cls-1" d="M398.79,383.5a8.32,8.32,0,0,0,8.31-8.31,6.68,6.68,0,0,0-6.67-6.67,5.62,5.62,0,0,0-5.62,5.34.35.35,0,0,0,.35.37h2.24a.35.35,0,0,0,.35-.32,2.7,2.7,0,0,1,2.67-2.44,3.73,3.73,0,0,1,3.72,3.72,5.36,5.36,0,0,1-10.73,0V359.78a.35.35,0,0,0-.35-.35h-2.24a.35.35,0,0,0-.35.35v15.41A8.32,8.32,0,0,0,398.79,383.5Z" transform="translate(-108 -359.42)"/><circle class="cls-1" cx="369.18" cy="10.07" r="1.84"/><rect class="cls-1" x="287.99" y="3.5" width="18.47" height="2.95" rx="0.35" ry="0.35"/><rect class="cls-1" x="338.61" y="3.5" width="18.47" height="2.95" rx="0.35" ry="0.35"/><path class="cls-1" d="M363.75,394a.36.36,0,0,0-.25-.11h-2.24a.35.35,0,0,0-.35.34,5.36,5.36,0,1,1-5.61-5.61.35.35,0,0,0,.34-.35V386a.35.35,0,0,0-.11-.25.34.34,0,0,0-.26-.1,8.31,8.31,0,1,0,8.59,8.59A.35.35,0,0,0,363.75,394Z" transform="translate(-108 -359.42)"/><path class="cls-1" d="M338.42,404h2.24a.35.35,0,0,0,.35-.35V388.28a8.31,8.31,0,0,0-16.62,0,6.68,6.68,0,0,0,6.67,6.67,5.62,5.62,0,0,0,5.62-5.34.35.35,0,0,0-.35-.37h-2.24a.35.35,0,0,0-.35.32,2.7,2.7,0,0,1-2.67,2.44,3.72,3.72,0,0,1-3.72-3.72,5.36,5.36,0,0,1,10.73,0v15.41A.35.35,0,0,0,338.42,404Z" transform="translate(-108 -359.42)"/><circle class="cls-1" cx="267.96" cy="10.07" r="1.84"/><path class="cls-1" d="M414.36,394a.36.36,0,0,0-.25-.11h-2.24a.35.35,0,0,0-.35.34,5.36,5.36,0,1,1-5.61-5.61.35.35,0,0,0,.34-.35V386a.36.36,0,0,0-.11-.25.34.34,0,0,0-.26-.1,8.31,8.31,0,1,0,8.59,8.59A.35.35,0,0,0,414.36,394Z" transform="translate(-108 -359.42)"/><rect class="cls-1" x="259.65" y="38.18" width="18.47" height="2.95" rx="0.35" ry="0.35"/><path class="cls-1" d="M389,404h2.24a.35.35,0,0,0,.35-.35V388.28a8.31,8.31,0,1,0-16.62,0,6.68,6.68,0,0,0,6.67,6.67,5.62,5.62,0,0,0,5.62-5.34.35.35,0,0,0-.35-.37H384.7a.35.35,0,0,0-.35.32,2.7,2.7,0,0,1-2.67,2.44,3.72,3.72,0,0,1-3.72-3.72,5.36,5.36,0,0,1,10.73,0v15.41A.35.35,0,0,0,389,404Z" transform="translate(-108 -359.42)"/><path class="cls-1" d="M376.24,377.79a8.31,8.31,0,1,0-8.59-8.59.35.35,0,0,0,.35.37h2.24a.35.35,0,0,0,.35-.34,5.36,5.36,0,1,1,5.61,5.61.35.35,0,0,0-.34.35v2.24a.35.35,0,0,0,.11.25A.34.34,0,0,0,376.24,377.79Z" transform="translate(-108 -359.42)"/><rect class="cls-1" x="259.65" y="45.99" width="18.47" height="2.95" rx="0.35" ry="0.35"/><rect class="cls-1" x="303.51" y="14.64" width="2.95" height="15.35" rx="0.35" ry="0.35"/><path class="cls-1" d="M1056.17,406.62a5.36,5.36,0,0,1,4.45,2.38h3.29a8.3,8.3,0,0,0-15.51,0h3.31A5.34,5.34,0,0,1,1056.17,406.62Z" transform="translate(-108 -359.42)"/><path class="cls-1" d="M1005.56,406.62A5.36,5.36,0,0,1,1010,409h3.29a8.3,8.3,0,0,0-15.51,0h3.31A5.34,5.34,0,0,1,1005.56,406.62Z" transform="translate(-108 -359.42)"/><path class="cls-1" d="M1106.78,406.62a5.36,5.36,0,0,1,4.45,2.38h3.29a8.3,8.3,0,0,0-15.51,0h3.31A5.34,5.34,0,0,1,1106.78,406.62Z" transform="translate(-108 -359.42)"/><path class="cls-1" d="M1157.39,406.62a5.36,5.36,0,0,1,4.46,2.38h3.29a8.3,8.3,0,0,0-15.51,0h3.31A5.34,5.34,0,0,1,1157.39,406.62Z" transform="translate(-108 -359.42)"/><path class="cls-1" d="M954.94,406.62A5.36,5.36,0,0,1,959.4,409h3.29a8.3,8.3,0,0,0-15.51,0h3.31A5.34,5.34,0,0,1,954.94,406.62Z" transform="translate(-108 -359.42)"/><path class="cls-1" d="M1258.62,406.62a5.36,5.36,0,0,1,4.46,2.38h3.29a8.3,8.3,0,0,0-15.51,0h3.31A5.34,5.34,0,0,1,1258.62,406.62Z" transform="translate(-108 -359.42)"/><path class="cls-1" d="M1208,406.62a5.36,5.36,0,0,1,4.46,2.38h3.29a8.3,8.3,0,0,0-15.51,0h3.31A5.34,5.34,0,0,1,1208,406.62Z" transform="translate(-108 -359.42)"/><path class="cls-1" d="M803.11,406.62a5.36,5.36,0,0,1,4.45,2.38h3.29a8.3,8.3,0,0,0-15.51,0h3.31A5.34,5.34,0,0,1,803.11,406.62Z" transform="translate(-108 -359.42)"/><path class="cls-1" d="M904.33,406.62a5.36,5.36,0,0,1,4.46,2.38h3.29a8.3,8.3,0,0,0-15.51,0h3.31A5.34,5.34,0,0,1,904.33,406.62Z" transform="translate(-108 -359.42)"/><path class="cls-1" d="M651.27,406.62a5.36,5.36,0,0,1,4.46,2.38H659a8.3,8.3,0,0,0-15.51,0h3.31A5.34,5.34,0,0,1,651.27,406.62Z" transform="translate(-108 -359.42)"/><path class="cls-1" d="M600.66,406.62a5.36,5.36,0,0,1,4.46,2.38h3.29a8.3,8.3,0,0,0-15.51,0h3.31A5.34,5.34,0,0,1,600.66,406.62Z" transform="translate(-108 -359.42)"/><path class="cls-1" d="M701.88,406.62a5.36,5.36,0,0,1,4.45,2.38h3.29a8.3,8.3,0,0,0-15.51,0h3.31A5.34,5.34,0,0,1,701.88,406.62Z" transform="translate(-108 -359.42)"/><path class="cls-1" d="M853.72,406.62a5.36,5.36,0,0,1,4.45,2.38h3.29A8.3,8.3,0,0,0,846,409h3.31A5.34,5.34,0,0,1,853.72,406.62Z" transform="translate(-108 -359.42)"/><path class="cls-1" d="M1309.23,406.62a5.36,5.36,0,0,1,4.46,2.38H1317a8.3,8.3,0,0,0-15.51,0h3.31A5.34,5.34,0,0,1,1309.23,406.62Z" transform="translate(-108 -359.42)"/><path class="cls-1" d="M752.5,406.62A5.36,5.36,0,0,1,757,409h3.29a8.3,8.3,0,0,0-15.51,0H748A5.34,5.34,0,0,1,752.5,406.62Z" transform="translate(-108 -359.42)"/><path class="cls-1" d="M1815.34,406.62a5.36,5.36,0,0,1,4.46,2.38h3.29a8.3,8.3,0,0,0-15.51,0h3.31A5.34,5.34,0,0,1,1815.34,406.62Z" transform="translate(-108 -359.42)"/><path class="cls-1" d="M1865.95,406.62a5.36,5.36,0,0,1,4.46,2.38h3.29a8.3,8.3,0,0,0-15.51,0h3.31A5.34,5.34,0,0,1,1865.95,406.62Z" transform="translate(-108 -359.42)"/><path class="cls-1" d="M186.59,404h2.24a.35.35,0,0,0,.35-.35V388.28a8.31,8.31,0,1,0-16.62,0,6.68,6.68,0,0,0,6.67,6.67,5.62,5.62,0,0,0,5.62-5.34.35.35,0,0,0-.35-.37h-2.24a.35.35,0,0,0-.35.32,2.7,2.7,0,0,1-2.67,2.44,3.73,3.73,0,0,1-3.72-3.72,5.36,5.36,0,0,1,10.73,0v15.41A.35.35,0,0,0,186.59,404Z" transform="translate(-108 -359.42)"/><path class="cls-1" d="M1764.72,406.62a5.36,5.36,0,0,1,4.45,2.38h3.29a8.3,8.3,0,0,0-15.51,0h3.31A5.34,5.34,0,0,1,1764.72,406.62Z" transform="translate(-108 -359.42)"/><path class="cls-1" d="M1714.11,406.62a5.36,5.36,0,0,1,4.45,2.38h3.29a8.3,8.3,0,0,0-15.51,0h3.31A5.34,5.34,0,0,1,1714.11,406.62Z" transform="translate(-108 -359.42)"/><path class="cls-1" d="M2017.78,406.62a5.36,5.36,0,0,1,4.45,2.38h3.29a8.3,8.3,0,0,0-15.51,0h3.31A5.34,5.34,0,0,1,2017.78,406.62Z" transform="translate(-108 -359.42)"/><path class="cls-1" d="M1967.17,406.62a5.36,5.36,0,0,1,4.45,2.38h3.29a8.3,8.3,0,0,0-15.51,0h3.31A5.34,5.34,0,0,1,1967.17,406.62Z" transform="translate(-108 -359.42)"/><path class="cls-1" d="M1916.56,406.62A5.36,5.36,0,0,1,1921,409h3.29a8.3,8.3,0,0,0-15.51,0h3.31A5.34,5.34,0,0,1,1916.56,406.62Z" transform="translate(-108 -359.42)"/><path class="cls-1" d="M1663.5,406.62A5.36,5.36,0,0,1,1668,409h3.29a8.3,8.3,0,0,0-15.51,0h3.31A5.34,5.34,0,0,1,1663.5,406.62Z" transform="translate(-108 -359.42)"/><path class="cls-1" d="M1461.06,406.62a5.36,5.36,0,0,1,4.45,2.38h3.29a8.3,8.3,0,0,0-15.51,0h3.31A5.34,5.34,0,0,1,1461.06,406.62Z" transform="translate(-108 -359.42)"/><path class="cls-1" d="M1511.67,406.62a5.36,5.36,0,0,1,4.46,2.38h3.29a8.3,8.3,0,0,0-15.51,0h3.31A5.34,5.34,0,0,1,1511.67,406.62Z" transform="translate(-108 -359.42)"/><path class="cls-1" d="M1410.45,406.62a5.36,5.36,0,0,1,4.45,2.38h3.29a8.3,8.3,0,0,0-15.51,0H1406A5.34,5.34,0,0,1,1410.45,406.62Z" transform="translate(-108 -359.42)"/><path class="cls-1" d="M1359.84,406.62a5.36,5.36,0,0,1,4.45,2.38h3.29a8.3,8.3,0,0,0-15.51,0h3.31A5.34,5.34,0,0,1,1359.84,406.62Z" transform="translate(-108 -359.42)"/><path class="cls-1" d="M1562.29,406.62a5.36,5.36,0,0,1,4.46,2.38H1570a8.3,8.3,0,0,0-15.51,0h3.31A5.34,5.34,0,0,1,1562.29,406.62Z" transform="translate(-108 -359.42)"/><path class="cls-1" d="M1612.89,406.62a5.36,5.36,0,0,1,4.45,2.38h3.29a8.3,8.3,0,0,0-15.51,0h3.31A5.34,5.34,0,0,1,1612.89,406.62Z" transform="translate(-108 -359.42)"/><path class="cls-1" d="M550.06,406.62a5.36,5.36,0,0,1,4.45,2.38h3.29a8.3,8.3,0,0,0-15.51,0h3.31A5.34,5.34,0,0,1,550.06,406.62Z" transform="translate(-108 -359.42)"/><path class="cls-1" d="M161.3,394a.36.36,0,0,0-.25-.11H158.8a.35.35,0,0,0-.35.34,5.36,5.36,0,1,1-5.61-5.61.35.35,0,0,0,.34-.35V386a.36.36,0,0,0-.11-.25.34.34,0,0,0-.26-.1,8.31,8.31,0,1,0,8.59,8.59A.36.36,0,0,0,161.3,394Z" transform="translate(-108 -359.42)"/><rect class="cls-1" x="101.07" y="14.64" width="2.95" height="15.35" rx="0.35" ry="0.35"/><rect class="cls-1" x="85.55" y="3.5" width="18.47" height="2.95" rx="0.35" ry="0.35"/><path class="cls-1" d="M136,404h2.24a.35.35,0,0,0,.35-.35V388.28a8.31,8.31,0,1,0-16.62,0,6.68,6.68,0,0,0,6.67,6.67,5.62,5.62,0,0,0,5.62-5.34.35.35,0,0,0-.35-.37h-2.24a.35.35,0,0,0-.35.32,2.7,2.7,0,0,1-2.67,2.44,3.73,3.73,0,0,1-3.72-3.72,5.36,5.36,0,0,1,10.73,0v15.41A.35.35,0,0,0,136,404Z" transform="translate(-108 -359.42)"/><path class="cls-1" d="M123.18,377.79a8.31,8.31,0,1,0-8.59-8.59.35.35,0,0,0,.35.37h2.24a.35.35,0,0,0,.35-.34,5.36,5.36,0,1,1,5.61,5.61.35.35,0,0,0-.34.35v2.24a.35.35,0,0,0,.11.25A.34.34,0,0,0,123.18,377.79Z" transform="translate(-108 -359.42)"/><circle class="cls-1" cx="14.9" cy="10.07" r="1.84"/><rect class="cls-1" x="6.59" y="38.18" width="18.47" height="2.95" rx="0.35" ry="0.35"/><rect class="cls-1" x="6.59" y="45.99" width="18.47" height="2.95" rx="0.35" ry="0.35"/><circle class="cls-1" cx="95.7" cy="34.56" r="1.84"/><rect class="cls-1" x="57.2" y="45.99" width="18.47" height="2.95" rx="0.35" ry="0.35"/><rect class="cls-1" x="57.2" y="38.18" width="18.47" height="2.95" rx="0.35" ry="0.35"/><path class="cls-1" d="M173.79,377.79a8.31,8.31,0,1,0-8.59-8.59.35.35,0,0,0,.35.37h2.24a.35.35,0,0,0,.35-.34,5.36,5.36,0,1,1,5.61,5.61.35.35,0,0,0-.34.35v2.24a.35.35,0,0,0,.11.25A.34.34,0,0,0,173.79,377.79Z" transform="translate(-108 -359.42)"/><circle class="cls-1" cx="65.51" cy="10.07" r="1.84"/><path class="cls-1" d="M499.45,406.62A5.36,5.36,0,0,1,503.9,409h3.29a8.3,8.3,0,0,0-15.51,0H495A5.34,5.34,0,0,1,499.45,406.62Z" transform="translate(-108 -359.42)"/><rect class="cls-1" x="57.2" y="14.64" width="2.95" height="15.35" rx="0.35" ry="0.35"/><path class="cls-1" d="M196.34,383.5a8.32,8.32,0,0,0,8.31-8.31,6.68,6.68,0,0,0-6.67-6.67,5.62,5.62,0,0,0-5.62,5.34.35.35,0,0,0,.35.37H195a.35.35,0,0,0,.35-.32,2.7,2.7,0,0,1,2.67-2.44,3.73,3.73,0,0,1,3.72,3.72,5.36,5.36,0,0,1-10.73,0V359.78a.35.35,0,0,0-.35-.35h-2.24a.35.35,0,0,0-.35.35v15.41A8.32,8.32,0,0,0,196.34,383.5Z" transform="translate(-108 -359.42)"/><path class="cls-1" d="M110.79,374.41a.35.35,0,0,0-.35-.35H108.2a.34.34,0,0,0-.2.07v15.21a.34.34,0,0,0,.2.07h2.24a.35.35,0,0,0,.35-.35Z" transform="translate(-108 -359.42)"/><path class="cls-1" d="M246.39,406.62a5.36,5.36,0,0,1,4.46,2.38h3.29a8.3,8.3,0,0,0-15.51,0h3.31A5.34,5.34,0,0,1,246.39,406.62Z" transform="translate(-108 -359.42)"/><path class="cls-1" d="M195.78,406.62a5.36,5.36,0,0,1,4.45,2.38h3.29A8.3,8.3,0,0,0,188,409h3.31A5.34,5.34,0,0,1,195.78,406.62Z" transform="translate(-108 -359.42)"/><path class="cls-1" d="M297,406.62a5.36,5.36,0,0,1,4.46,2.38h3.29a8.3,8.3,0,0,0-15.51,0h3.31A5.34,5.34,0,0,1,297,406.62Z" transform="translate(-108 -359.42)"/><path class="cls-1" d="M448.84,406.62a5.36,5.36,0,0,1,4.45,2.38h3.29a8.3,8.3,0,0,0-15.51,0h3.31A5.34,5.34,0,0,1,448.84,406.62Z" transform="translate(-108 -359.42)"/><path class="cls-1" d="M398.22,406.62a5.36,5.36,0,0,1,4.46,2.38H406a8.3,8.3,0,0,0-15.51,0h3.31A5.34,5.34,0,0,1,398.22,406.62Z" transform="translate(-108 -359.42)"/><path class="cls-1" d="M347.61,406.62a5.36,5.36,0,0,1,4.46,2.38h3.29a8.3,8.3,0,0,0-15.51,0h3.31A5.34,5.34,0,0,1,347.61,406.62Z" transform="translate(-108 -359.42)"/><rect class="cls-1" x="50.45" y="14.64" width="2.95" height="15.35" rx="0.35" ry="0.35"/><circle class="cls-1" cx="45.09" cy="34.56" r="1.84"/><path class="cls-1" d="M110.69,394a.36.36,0,0,0-.25-.11h-2.24a.34.34,0,0,0-.19.08v6.23a8.27,8.27,0,0,0,2.79-5.94A.35.35,0,0,0,110.69,394Z" transform="translate(-108 -359.42)"/><path class="cls-1" d="M145.73,383.5a8.32,8.32,0,0,0,8.31-8.31,6.68,6.68,0,0,0-6.67-6.67,5.62,5.62,0,0,0-5.62,5.34.35.35,0,0,0,.35.37h2.24a.35.35,0,0,0,.35-.32,2.7,2.7,0,0,1,2.67-2.44,3.73,3.73,0,0,1,3.72,3.72,5.36,5.36,0,0,1-10.73,0V359.78a.35.35,0,0,0-.35-.35h-2.24a.35.35,0,0,0-.35.35v15.41A8.32,8.32,0,0,0,145.73,383.5Z" transform="translate(-108 -359.42)"/><rect class="cls-1" x="6.59" y="14.64" width="2.95" height="15.35" rx="0.35" ry="0.35"/><path class="cls-1" d="M108,365.86h2.44a.35.35,0,0,0,.35-.35v-2.24a.35.35,0,0,0-.35-.35H108Z" transform="translate(-108 -359.42)"/><rect class="cls-1" x="34.93" y="3.5" width="18.47" height="2.95" rx="0.35" ry="0.35"/><path class="cls-1" d="M237.2,404h2.24a.35.35,0,0,0,.35-.35V388.28a8.31,8.31,0,0,0-16.62,0,6.68,6.68,0,0,0,6.67,6.67,5.62,5.62,0,0,0,5.62-5.34.35.35,0,0,0-.35-.37h-2.24a.35.35,0,0,0-.35.32,2.7,2.7,0,0,1-2.67,2.44,3.73,3.73,0,0,1-3.72-3.72,5.36,5.36,0,0,1,10.73,0v15.41A.35.35,0,0,0,237.2,404Z" transform="translate(-108 -359.42)"/><path class="cls-1" d="M831.73,377.79a8.31,8.31,0,1,0-8.59-8.59.35.35,0,0,0,.35.37h2.24a.35.35,0,0,0,.35-.34,5.36,5.36,0,1,1,5.61,5.61.35.35,0,0,0-.34.35v2.24a.35.35,0,0,0,.11.25A.34.34,0,0,0,831.73,377.79Z" transform="translate(-108 -359.42)"/><rect class="cls-1" x="809.62" y="14.64" width="2.95" height="15.35" rx="0.35" ry="0.35"/><path class="cls-1" d="M869.85,394a.35.35,0,0,0-.25-.11h-2.24a.35.35,0,0,0-.35.34,5.36,5.36,0,1,1-5.61-5.61.35.35,0,0,0,.34-.35V386a.36.36,0,0,0-.11-.25.34.34,0,0,0-.26-.1,8.31,8.31,0,1,0,8.59,8.59A.35.35,0,0,0,869.85,394Z" transform="translate(-108 -359.42)"/><rect class="cls-1" x="715.14" y="45.99" width="18.47" height="2.95" rx="0.35" ry="0.35"/><circle class="cls-1" cx="804.26" cy="34.56" r="1.84"/><rect class="cls-1" x="715.14" y="38.18" width="18.47" height="2.95" rx="0.35" ry="0.35"/><path class="cls-1" d="M844.53,404h2.24a.35.35,0,0,0,.35-.35V388.28a8.31,8.31,0,1,0-16.62,0,6.68,6.68,0,0,0,6.67,6.67,5.62,5.62,0,0,0,5.62-5.34.35.35,0,0,0-.35-.37H840.2a.35.35,0,0,0-.35.32,2.7,2.7,0,0,1-2.67,2.44,3.73,3.73,0,0,1-3.72-3.72,5.36,5.36,0,0,1,10.73,0v15.41A.35.35,0,0,0,844.53,404Z" transform="translate(-108 -359.42)"/><rect class="cls-1" x="794.1" y="3.5" width="18.47" height="2.95" rx="0.35" ry="0.35"/><rect class="cls-1" x="765.76" y="45.99" width="18.47" height="2.95" rx="0.35" ry="0.35"/><path class="cls-1" d="M904.9,383.5a8.32,8.32,0,0,0,8.31-8.31,6.68,6.68,0,0,0-6.67-6.67,5.62,5.62,0,0,0-5.62,5.34.35.35,0,0,0,.35.37h2.24a.35.35,0,0,0,.35-.32,2.7,2.7,0,0,1,2.67-2.44,3.72,3.72,0,0,1,3.72,3.72,5.36,5.36,0,0,1-10.73,0V359.78a.35.35,0,0,0-.35-.35h-2.24a.35.35,0,0,0-.35.35v15.41A8.32,8.32,0,0,0,904.9,383.5Z" transform="translate(-108 -359.42)"/><path class="cls-1" d="M895.14,404h2.24a.35.35,0,0,0,.35-.35V388.28a8.31,8.31,0,1,0-16.62,0,6.68,6.68,0,0,0,6.67,6.67,5.62,5.62,0,0,0,5.62-5.34.35.35,0,0,0-.35-.37h-2.24a.35.35,0,0,0-.35.32,2.7,2.7,0,0,1-2.67,2.44,3.72,3.72,0,0,1-3.72-3.72,5.36,5.36,0,0,1,10.73,0v15.41A.35.35,0,0,0,895.14,404Z" transform="translate(-108 -359.42)"/><rect class="cls-1" x="765.76" y="38.18" width="18.47" height="2.95" rx="0.35" ry="0.35"/><path class="cls-1" d="M882.35,377.79a8.31,8.31,0,1,0-8.59-8.59.35.35,0,0,0,.35.37h2.24a.35.35,0,0,0,.35-.34,5.36,5.36,0,1,1,5.61,5.61.35.35,0,0,0-.34.35v2.24a.35.35,0,0,0,.11.25A.34.34,0,0,0,882.35,377.79Z" transform="translate(-108 -359.42)"/><rect class="cls-1" x="765.76" y="14.64" width="2.95" height="15.35" rx="0.35" ry="0.35"/><circle class="cls-1" cx="774.07" cy="10.07" r="1.84"/><path class="cls-1" d="M793.92,404h2.24a.35.35,0,0,0,.35-.35V388.28a8.31,8.31,0,1,0-16.62,0,6.68,6.68,0,0,0,6.67,6.67,5.62,5.62,0,0,0,5.62-5.34.35.35,0,0,0-.35-.37h-2.24a.35.35,0,0,0-.35.32,2.7,2.7,0,0,1-2.67,2.44,3.73,3.73,0,0,1-3.72-3.72,5.36,5.36,0,0,1,10.73,0v15.41A.35.35,0,0,0,793.92,404Z" transform="translate(-108 -359.42)"/><path class="cls-1" d="M781.12,377.79a8.31,8.31,0,1,0-8.59-8.59.35.35,0,0,0,.35.37h2.24a.35.35,0,0,0,.35-.34,5.36,5.36,0,1,1,5.61,5.61.35.35,0,0,0-.34.35v2.24a.35.35,0,0,0,.11.25A.34.34,0,0,0,781.12,377.79Z" transform="translate(-108 -359.42)"/><rect class="cls-1" x="664.53" y="45.99" width="18.47" height="2.95" rx="0.35" ry="0.35"/><rect class="cls-1" x="664.53" y="38.18" width="18.47" height="2.95" rx="0.35" ry="0.35"/><path class="cls-1" d="M803.68,383.5a8.32,8.32,0,0,0,8.31-8.31,6.68,6.68,0,0,0-6.67-6.67,5.62,5.62,0,0,0-5.62,5.34.35.35,0,0,0,.35.37h2.24a.35.35,0,0,0,.35-.32,2.7,2.7,0,0,1,2.67-2.44,3.72,3.72,0,0,1,3.72,3.72,5.36,5.36,0,0,1-10.73,0V359.78a.35.35,0,0,0-.35-.35h-2.24a.35.35,0,0,0-.35.35v15.41A8.32,8.32,0,0,0,803.68,383.5Z" transform="translate(-108 -359.42)"/><path class="cls-1" d="M920.47,394a.35.35,0,0,0-.25-.11H918a.35.35,0,0,0-.35.34,5.36,5.36,0,1,1-5.61-5.61.35.35,0,0,0,.34-.35V386a.35.35,0,0,0-.11-.25.34.34,0,0,0-.26-.1,8.31,8.31,0,1,0,8.59,8.59A.35.35,0,0,0,920.47,394Z" transform="translate(-108 -359.42)"/><circle class="cls-1" cx="672.84" cy="10.07" r="1.84"/><rect class="cls-1" x="664.53" y="14.64" width="2.95" height="15.35" rx="0.35" ry="0.35"/><path class="cls-1" d="M854.29,383.5a8.32,8.32,0,0,0,8.31-8.31,6.68,6.68,0,0,0-6.67-6.67,5.62,5.62,0,0,0-5.62,5.34.35.35,0,0,0,.35.37h2.24a.35.35,0,0,0,.35-.32,2.7,2.7,0,0,1,2.67-2.44,3.72,3.72,0,0,1,3.72,3.72,5.36,5.36,0,0,1-10.73,0V359.78a.35.35,0,0,0-.35-.35h-2.24a.35.35,0,0,0-.35.35v15.41A8.32,8.32,0,0,0,854.29,383.5Z" transform="translate(-108 -359.42)"/><circle class="cls-1" cx="753.65" cy="34.56" r="1.84"/><circle class="cls-1" cx="723.46" cy="10.07" r="1.84"/><rect class="cls-1" x="715.14" y="14.64" width="2.95" height="15.35" rx="0.35" ry="0.35"/><rect class="cls-1" x="743.49" y="3.5" width="18.47" height="2.95" rx="0.35" ry="0.35"/><path class="cls-1" d="M819.24,394a.35.35,0,0,0-.25-.11h-2.24a.35.35,0,0,0-.35.34,5.36,5.36,0,1,1-5.61-5.61.35.35,0,0,0,.34-.35V386a.36.36,0,0,0-.11-.25.34.34,0,0,0-.26-.1,8.31,8.31,0,1,0,8.59,8.59A.35.35,0,0,0,819.24,394Z" transform="translate(-108 -359.42)"/><rect class="cls-1" x="759.01" y="14.64" width="2.95" height="15.35" rx="0.35" ry="0.35"/><path class="cls-1" d="M1034.18,377.79a8.31,8.31,0,1,0-8.59-8.59.35.35,0,0,0,.35.37h2.24a.35.35,0,0,0,.35-.34,5.36,5.36,0,1,1,5.61,5.61.35.35,0,0,0-.34.35v2.24a.35.35,0,0,0,.11.25A.34.34,0,0,0,1034.18,377.79Z" transform="translate(-108 -359.42)"/><path class="cls-1" d="M996.37,404h2.24a.35.35,0,0,0,.35-.35V388.28a8.31,8.31,0,0,0-16.62,0A6.68,6.68,0,0,0,989,395a5.62,5.62,0,0,0,5.62-5.34.35.35,0,0,0-.35-.37H992a.35.35,0,0,0-.35.32A2.7,2.7,0,0,1,989,392a3.72,3.72,0,0,1-3.72-3.72,5.36,5.36,0,0,1,10.73,0v15.41A.35.35,0,0,0,996.37,404Z" transform="translate(-108 -359.42)"/><rect class="cls-1" x="866.98" y="14.64" width="2.95" height="15.35" rx="0.35" ry="0.35"/><rect class="cls-1" x="866.98" y="38.18" width="18.47" height="2.95" rx="0.35" ry="0.35"/><circle class="cls-1" cx="875.29" cy="10.07" r="1.84"/><rect class="cls-1" x="945.94" y="3.5" width="18.47" height="2.95" rx="0.35" ry="0.35"/><rect class="cls-1" x="866.98" y="45.99" width="18.47" height="2.95" rx="0.35" ry="0.35"/><path class="cls-1" d="M983.57,377.79a8.31,8.31,0,1,0-8.59-8.59.35.35,0,0,0,.35.37h2.24a.35.35,0,0,0,.35-.34,5.36,5.36,0,1,1,5.61,5.61.35.35,0,0,0-.34.35v2.24a.35.35,0,0,0,.11.25A.34.34,0,0,0,983.57,377.79Z" transform="translate(-108 -359.42)"/><path class="cls-1" d="M1021.69,394a.36.36,0,0,0-.25-.11h-2.24a.35.35,0,0,0-.35.34,5.36,5.36,0,1,1-5.61-5.61.35.35,0,0,0,.34-.35V386a.36.36,0,0,0-.11-.25.34.34,0,0,0-.26-.1,8.31,8.31,0,1,0,8.59,8.59A.35.35,0,0,0,1021.69,394Z" transform="translate(-108 -359.42)"/><circle class="cls-1" cx="703.04" cy="34.56" r="1.84"/><rect class="cls-1" x="917.59" y="45.99" width="18.47" height="2.95" rx="0.35" ry="0.35"/><circle class="cls-1" cx="925.9" cy="10.07" r="1.84"/><rect class="cls-1" x="917.59" y="14.64" width="2.95" height="15.35" rx="0.35" ry="0.35"/><circle class="cls-1" cx="956.09" cy="34.56" r="1.84"/><path class="cls-1" d="M1056.74,383.5a8.32,8.32,0,0,0,8.31-8.31,6.68,6.68,0,0,0-6.67-6.67,5.62,5.62,0,0,0-5.62,5.34.35.35,0,0,0,.35.37h2.24a.35.35,0,0,0,.35-.32,2.7,2.7,0,0,1,2.67-2.44,3.73,3.73,0,0,1,3.72,3.72,5.36,5.36,0,0,1-10.73,0V359.78a.35.35,0,0,0-.35-.35h-2.24a.35.35,0,0,0-.35.35v15.41A8.32,8.32,0,0,0,1056.74,383.5Z" transform="translate(-108 -359.42)"/><rect class="cls-1" x="961.46" y="14.64" width="2.95" height="15.35" rx="0.35" ry="0.35"/><path class="cls-1" d="M955.51,383.5a8.32,8.32,0,0,0,8.31-8.31,6.68,6.68,0,0,0-6.67-6.67,5.62,5.62,0,0,0-5.62,5.34.35.35,0,0,0,.35.37h2.24a.35.35,0,0,0,.35-.32,2.7,2.7,0,0,1,2.67-2.44,3.72,3.72,0,0,1,3.72,3.72,5.36,5.36,0,0,1-10.73,0V359.78a.35.35,0,0,0-.35-.35h-2.24a.35.35,0,0,0-.35.35v15.41A8.32,8.32,0,0,0,955.51,383.5Z" transform="translate(-108 -359.42)"/><circle class="cls-1" cx="824.68" cy="10.07" r="1.84"/><path class="cls-1" d="M1006.12,383.5a8.32,8.32,0,0,0,8.31-8.31,6.68,6.68,0,0,0-6.67-6.67,5.62,5.62,0,0,0-5.62,5.34.35.35,0,0,0,.35.37h2.24a.35.35,0,0,0,.35-.32,2.7,2.7,0,0,1,2.67-2.44,3.73,3.73,0,0,1,3.72,3.72,5.36,5.36,0,0,1-10.73,0V359.78a.35.35,0,0,0-.35-.35h-2.24a.35.35,0,0,0-.35.35v15.41A8.32,8.32,0,0,0,1006.12,383.5Z" transform="translate(-108 -359.42)"/><rect class="cls-1" x="816.37" y="14.64" width="2.95" height="15.35" rx="0.35" ry="0.35"/><path class="cls-1" d="M933,377.79a8.31,8.31,0,1,0-8.59-8.59.35.35,0,0,0,.35.37H927a.35.35,0,0,0,.35-.34,5.36,5.36,0,1,1,5.61,5.61.35.35,0,0,0-.34.35v2.24a.35.35,0,0,0,.11.25A.34.34,0,0,0,933,377.79Z" transform="translate(-108 -359.42)"/><rect class="cls-1" x="844.71" y="3.5" width="18.47" height="2.95" rx="0.35" ry="0.35"/><rect class="cls-1" x="860.23" y="14.64" width="2.95" height="15.35" rx="0.35" ry="0.35"/><circle class="cls-1" cx="854.87" cy="34.56" r="1.84"/><rect class="cls-1" x="816.37" y="45.99" width="18.47" height="2.95" rx="0.35" ry="0.35"/><rect class="cls-1" x="910.85" y="14.64" width="2.95" height="15.35" rx="0.35" ry="0.35"/><circle class="cls-1" cx="905.48" cy="34.56" r="1.84"/><rect class="cls-1" x="895.33" y="3.5" width="18.47" height="2.95" rx="0.35" ry="0.35"/><path class="cls-1" d="M945.76,404H948a.35.35,0,0,0,.35-.35V388.28a8.31,8.31,0,0,0-16.62,0A6.68,6.68,0,0,0,938.4,395a5.62,5.62,0,0,0,5.62-5.34.35.35,0,0,0-.35-.37h-2.24a.35.35,0,0,0-.35.32A2.7,2.7,0,0,1,938.4,392a3.72,3.72,0,0,1-3.72-3.72,5.36,5.36,0,0,1,10.73,0v15.41A.35.35,0,0,0,945.76,404Z" transform="translate(-108 -359.42)"/><path class="cls-1" d="M971.08,394a.36.36,0,0,0-.25-.11h-2.24a.35.35,0,0,0-.35.34,5.36,5.36,0,1,1-5.61-5.61.35.35,0,0,0,.34-.35V386a.35.35,0,0,0-.11-.25.34.34,0,0,0-.26-.1,8.31,8.31,0,1,0,8.59,8.59A.35.35,0,0,0,971.08,394Z" transform="translate(-108 -359.42)"/><rect class="cls-1" x="816.37" y="38.18" width="18.47" height="2.95" rx="0.35" ry="0.35"/><path class="cls-1" d="M768.63,394a.36.36,0,0,0-.25-.11h-2.24a.35.35,0,0,0-.35.34,5.36,5.36,0,1,1-5.61-5.61.35.35,0,0,0,.34-.35V386a.36.36,0,0,0-.11-.25.34.34,0,0,0-.26-.1,8.31,8.31,0,1,0,8.59,8.59A.35.35,0,0,0,768.63,394Z" transform="translate(-108 -359.42)"/><rect class="cls-1" x="462.08" y="14.64" width="2.95" height="15.35" rx="0.35" ry="0.35"/><path class="cls-1" d="M601.23,383.5a8.32,8.32,0,0,0,8.31-8.31,6.68,6.68,0,0,0-6.67-6.67,5.62,5.62,0,0,0-5.62,5.34.35.35,0,0,0,.35.37h2.24a.35.35,0,0,0,.35-.32,2.7,2.7,0,0,1,2.67-2.44,3.72,3.72,0,0,1,3.72,3.72,5.36,5.36,0,0,1-10.73,0V359.78a.35.35,0,0,0-.35-.35h-2.24a.35.35,0,0,0-.35.35v15.41A8.32,8.32,0,0,0,601.23,383.5Z" transform="translate(-108 -359.42)"/><path class="cls-1" d="M578.68,377.79a8.31,8.31,0,1,0-8.59-8.59.35.35,0,0,0,.35.37h2.24a.35.35,0,0,0,.35-.34,5.36,5.36,0,1,1,5.61,5.61.35.35,0,0,0-.34.35v2.24a.35.35,0,0,0,.11.25A.34.34,0,0,0,578.68,377.79Z" transform="translate(-108 -359.42)"/><circle class="cls-1" cx="470.4" cy="10.07" r="1.84"/><circle class="cls-1" cx="500.59" cy="34.56" r="1.84"/><rect class="cls-1" x="708.4" y="14.64" width="2.95" height="15.35" rx="0.35" ry="0.35"/><rect class="cls-1" x="505.95" y="14.64" width="2.95" height="15.35" rx="0.35" ry="0.35"/><path class="cls-1" d="M616.79,394a.36.36,0,0,0-.25-.11H614.3a.35.35,0,0,0-.35.34,5.36,5.36,0,1,1-5.61-5.61.35.35,0,0,0,.34-.35V386a.35.35,0,0,0-.11-.25.34.34,0,0,0-.26-.1,8.31,8.31,0,1,0,8.59,8.59A.35.35,0,0,0,616.79,394Z" transform="translate(-108 -359.42)"/><rect class="cls-1" x="556.56" y="14.64" width="2.95" height="15.35" rx="0.35" ry="0.35"/><circle class="cls-1" cx="551.2" cy="34.56" r="1.84"/><rect class="cls-1" x="541.04" y="3.5" width="18.47" height="2.95" rx="0.35" ry="0.35"/><rect class="cls-1" x="462.08" y="45.99" width="18.47" height="2.95" rx="0.35" ry="0.35"/><rect class="cls-1" x="462.08" y="38.18" width="18.47" height="2.95" rx="0.35" ry="0.35"/><path class="cls-1" d="M591.47,404h2.24a.35.35,0,0,0,.35-.35V388.28a8.31,8.31,0,0,0-16.62,0,6.68,6.68,0,0,0,6.67,6.67,5.62,5.62,0,0,0,5.62-5.34.35.35,0,0,0-.35-.37h-2.24a.35.35,0,0,0-.35.32,2.7,2.7,0,0,1-2.67,2.44,3.72,3.72,0,0,1-3.72-3.72,5.36,5.36,0,0,1,10.73,0v15.41A.35.35,0,0,0,591.47,404Z" transform="translate(-108 -359.42)"/><path class="cls-1" d="M566.18,394a.35.35,0,0,0-.25-.11h-2.24a.35.35,0,0,0-.35.34,5.36,5.36,0,1,1-5.61-5.61.35.35,0,0,0,.34-.35V386a.35.35,0,0,0-.11-.25.34.34,0,0,0-.26-.1,8.31,8.31,0,1,0,8.59,8.59A.35.35,0,0,0,566.18,394Z" transform="translate(-108 -359.42)"/><path class="cls-1" d="M550.62,383.5a8.32,8.32,0,0,0,8.31-8.31,6.68,6.68,0,0,0-6.67-6.67,5.62,5.62,0,0,0-5.62,5.34.35.35,0,0,0,.35.37h2.24a.35.35,0,0,0,.35-.32,2.7,2.7,0,0,1,2.67-2.44,3.72,3.72,0,0,1,3.72,3.72,5.36,5.36,0,0,1-10.73,0V359.78a.35.35,0,0,0-.35-.35h-2.24a.35.35,0,0,0-.35.35v15.41A8.32,8.32,0,0,0,550.62,383.5Z" transform="translate(-108 -359.42)"/><rect class="cls-1" x="439.82" y="3.5" width="18.47" height="2.95" rx="0.35" ry="0.35"/><path class="cls-1" d="M515.58,394a.35.35,0,0,0-.25-.11h-2.24a.35.35,0,0,0-.35.34,5.36,5.36,0,1,1-5.61-5.61.35.35,0,0,0,.34-.35V386a.36.36,0,0,0-.11-.25.34.34,0,0,0-.26-.1,8.31,8.31,0,1,0,8.59,8.59A.35.35,0,0,0,515.58,394Z" transform="translate(-108 -359.42)"/><circle class="cls-1" cx="449.98" cy="34.56" r="1.84"/><rect class="cls-1" x="455.34" y="14.64" width="2.95" height="15.35" rx="0.35" ry="0.35"/><rect class="cls-1" x="360.87" y="45.99" width="18.47" height="2.95" rx="0.35" ry="0.35"/><path class="cls-1" d="M540.87,404h2.24a.35.35,0,0,0,.35-.35V388.28a8.31,8.31,0,1,0-16.62,0,6.68,6.68,0,0,0,6.67,6.67,5.62,5.62,0,0,0,5.62-5.34.35.35,0,0,0-.35-.37h-2.24a.35.35,0,0,0-.35.32,2.7,2.7,0,0,1-2.67,2.44,3.73,3.73,0,0,1-3.72-3.72,5.36,5.36,0,0,1,10.73,0v15.41A.35.35,0,0,0,540.87,404Z" transform="translate(-108 -359.42)"/><rect class="cls-1" x="360.87" y="38.18" width="18.47" height="2.95" rx="0.35" ry="0.35"/><path class="cls-1" d="M490.26,404h2.24a.35.35,0,0,0,.35-.35V388.28a8.31,8.31,0,1,0-16.62,0A6.68,6.68,0,0,0,482.9,395a5.62,5.62,0,0,0,5.62-5.34.35.35,0,0,0-.35-.37h-2.24a.35.35,0,0,0-.35.32A2.7,2.7,0,0,1,482.9,392a3.73,3.73,0,0,1-3.72-3.72,5.36,5.36,0,0,1,10.73,0v15.41A.35.35,0,0,0,490.26,404Z" transform="translate(-108 -359.42)"/><rect class="cls-1" x="411.48" y="45.99" width="18.47" height="2.95" rx="0.35" ry="0.35"/><rect class="cls-1" x="411.48" y="38.18" width="18.47" height="2.95" rx="0.35" ry="0.35"/><path class="cls-1" d="M528.07,377.79a8.31,8.31,0,1,0-8.59-8.59.35.35,0,0,0,.35.37h2.24a.35.35,0,0,0,.35-.34,5.36,5.36,0,1,1,5.61,5.61.35.35,0,0,0-.34.35v2.24a.35.35,0,0,0,.11.25A.34.34,0,0,0,528.07,377.79Z" transform="translate(-108 -359.42)"/><path class="cls-1" d="M651.84,383.5a8.32,8.32,0,0,0,8.31-8.31,6.68,6.68,0,0,0-6.67-6.67,5.62,5.62,0,0,0-5.62,5.34.35.35,0,0,0,.35.37h2.24a.35.35,0,0,0,.35-.32,2.7,2.7,0,0,1,2.67-2.44,3.72,3.72,0,0,1,3.72,3.72,5.36,5.36,0,0,1-10.73,0V359.78a.35.35,0,0,0-.35-.35h-2.24a.35.35,0,0,0-.35.35v15.41A8.32,8.32,0,0,0,651.84,383.5Z" transform="translate(-108 -359.42)"/><rect class="cls-1" x="411.48" y="14.64" width="2.95" height="15.35" rx="0.35" ry="0.35"/><circle class="cls-1" cx="419.79" cy="10.07" r="1.84"/><rect class="cls-1" x="490.43" y="3.5" width="18.47" height="2.95" rx="0.35" ry="0.35"/><circle class="cls-1" cx="652.42" cy="34.56" r="1.84"/><path class="cls-1" d="M753.06,383.5a8.32,8.32,0,0,0,8.31-8.31,6.68,6.68,0,0,0-6.67-6.67,5.62,5.62,0,0,0-5.62,5.34.35.35,0,0,0,.35.37h2.24a.35.35,0,0,0,.35-.32,2.7,2.7,0,0,1,2.67-2.44,3.73,3.73,0,0,1,3.72,3.72,5.36,5.36,0,0,1-10.73,0V359.78a.35.35,0,0,0-.35-.35h-2.24a.35.35,0,0,0-.35.35v15.41A8.32,8.32,0,0,0,753.06,383.5Z" transform="translate(-108 -359.42)"/><rect class="cls-1" x="657.79" y="14.64" width="2.95" height="15.35" rx="0.35" ry="0.35"/><path class="cls-1" d="M718,394a.36.36,0,0,0-.25-.11h-2.24a.35.35,0,0,0-.35.34,5.36,5.36,0,1,1-5.61-5.61.35.35,0,0,0,.34-.35V386a.36.36,0,0,0-.11-.25.34.34,0,0,0-.26-.1,8.31,8.31,0,1,0,8.59,8.59A.36.36,0,0,0,718,394Z" transform="translate(-108 -359.42)"/><path class="cls-1" d="M692.7,404h2.24a.35.35,0,0,0,.35-.35V388.28a8.31,8.31,0,1,0-16.62,0,6.68,6.68,0,0,0,6.67,6.67,5.62,5.62,0,0,0,5.62-5.34.35.35,0,0,0-.35-.37h-2.24a.35.35,0,0,0-.35.32,2.7,2.7,0,0,1-2.67,2.44,3.72,3.72,0,0,1-3.72-3.72,5.36,5.36,0,0,1,10.73,0v15.41A.35.35,0,0,0,692.7,404Z" transform="translate(-108 -359.42)"/><rect class="cls-1" x="642.27" y="3.5" width="18.47" height="2.95" rx="0.35" ry="0.35"/><rect class="cls-1" x="613.92" y="14.64" width="2.95" height="15.35" rx="0.35" ry="0.35"/><path class="cls-1" d="M477.46,377.79a8.31,8.31,0,1,0-8.59-8.59.35.35,0,0,0,.35.37h2.24a.35.35,0,0,0,.35-.34,5.36,5.36,0,1,1,5.61,5.61.35.35,0,0,0-.34.35v2.24a.35.35,0,0,0,.11.25A.34.34,0,0,0,477.46,377.79Z" transform="translate(-108 -359.42)"/><rect class="cls-1" x="563.31" y="38.18" width="18.47" height="2.95" rx="0.35" ry="0.35"/><rect class="cls-1" x="692.88" y="3.5" width="18.47" height="2.95" rx="0.35" ry="0.35"/><path class="cls-1" d="M743.31,404h2.24a.35.35,0,0,0,.35-.35V388.28a8.31,8.31,0,1,0-16.62,0,6.68,6.68,0,0,0,6.67,6.67,5.62,5.62,0,0,0,5.62-5.34.35.35,0,0,0-.35-.37H739a.35.35,0,0,0-.35.32,2.7,2.7,0,0,1-2.67,2.44,3.72,3.72,0,0,1-3.72-3.72,5.36,5.36,0,0,1,10.73,0v15.41A.35.35,0,0,0,743.31,404Z" transform="translate(-108 -359.42)"/><path class="cls-1" d="M730.51,377.79a8.31,8.31,0,1,0-8.59-8.59.35.35,0,0,0,.35.37h2.24a.35.35,0,0,0,.35-.34,5.36,5.36,0,1,1,5.61,5.61.35.35,0,0,0-.34.35v2.24a.35.35,0,0,0,.11.25A.34.34,0,0,0,730.51,377.79Z" transform="translate(-108 -359.42)"/><circle class="cls-1" cx="622.23" cy="10.07" r="1.84"/><rect class="cls-1" x="613.92" y="45.99" width="18.47" height="2.95" rx="0.35" ry="0.35"/><rect class="cls-1" x="613.92" y="38.18" width="18.47" height="2.95" rx="0.35" ry="0.35"/><path class="cls-1" d="M642.09,404h2.24a.35.35,0,0,0,.35-.35V388.28a8.31,8.31,0,0,0-16.62,0,6.68,6.68,0,0,0,6.67,6.67,5.62,5.62,0,0,0,5.62-5.34.35.35,0,0,0-.35-.37h-2.24a.35.35,0,0,0-.35.32,2.7,2.7,0,0,1-2.67,2.44,3.72,3.72,0,0,1-3.72-3.72,5.36,5.36,0,0,1,10.73,0v15.41A.35.35,0,0,0,642.09,404Z" transform="translate(-108 -359.42)"/><rect class="cls-1" x="512.7" y="38.18" width="18.47" height="2.95" rx="0.35" ry="0.35"/><rect class="cls-1" x="591.66" y="3.5" width="18.47" height="2.95" rx="0.35" ry="0.35"/><path class="cls-1" d="M667.41,394a.36.36,0,0,0-.25-.11h-2.24a.35.35,0,0,0-.35.34,5.36,5.36,0,1,1-5.61-5.61.35.35,0,0,0,.34-.35V386a.35.35,0,0,0-.11-.25.34.34,0,0,0-.26-.1,8.31,8.31,0,1,0,8.59,8.59A.35.35,0,0,0,667.41,394Z" transform="translate(-108 -359.42)"/><rect class="cls-1" x="512.7" y="14.64" width="2.95" height="15.35" rx="0.35" ry="0.35"/><circle class="cls-1" cx="521.01" cy="10.07" r="1.84"/><path class="cls-1" d="M629.29,377.79a8.31,8.31,0,1,0-8.59-8.59.35.35,0,0,0,.35.37h2.24a.35.35,0,0,0,.35-.34,5.36,5.36,0,1,1,5.61,5.61.35.35,0,0,0-.34.35v2.24a.35.35,0,0,0,.11.25A.34.34,0,0,0,629.29,377.79Z" transform="translate(-108 -359.42)"/><rect class="cls-1" x="512.7" y="45.99" width="18.47" height="2.95" rx="0.35" ry="0.35"/><rect class="cls-1" x="563.31" y="14.64" width="2.95" height="15.35" rx="0.35" ry="0.35"/><rect class="cls-1" x="607.18" y="14.64" width="2.95" height="15.35" rx="0.35" ry="0.35"/><rect class="cls-1" x="563.31" y="45.99" width="18.47" height="2.95" rx="0.35" ry="0.35"/><path class="cls-1" d="M679.9,377.79a8.31,8.31,0,1,0-8.59-8.59.35.35,0,0,0,.35.37h2.24a.35.35,0,0,0,.35-.34,5.36,5.36,0,1,1,5.61,5.61.35.35,0,0,0-.34.35v2.24a.35.35,0,0,0,.11.25A.34.34,0,0,0,679.9,377.79Z" transform="translate(-108 -359.42)"/><circle class="cls-1" cx="571.62" cy="10.07" r="1.84"/><circle class="cls-1" cx="601.81" cy="34.56" r="1.84"/><path class="cls-1" d="M702.45,383.5a8.32,8.32,0,0,0,8.31-8.31,6.68,6.68,0,0,0-6.67-6.67,5.62,5.62,0,0,0-5.62,5.34.35.35,0,0,0,.35.37h2.24a.35.35,0,0,0,.35-.32,2.7,2.7,0,0,1,2.67-2.44,3.73,3.73,0,0,1,3.72,3.72,5.36,5.36,0,0,1-10.73,0V359.78a.35.35,0,0,0-.35-.35H694.5a.35.35,0,0,0-.35.35v15.41A8.32,8.32,0,0,0,702.45,383.5Z" transform="translate(-108 -359.42)"/></svg>