<svg id="Layer_1" data-name="Layer 1" xmlns="http://www.w3.org/2000/svg" viewBox="0 0 126 126"><defs><style>.cls-1{fill:#fff;}</style></defs><title>TD_social_TW_black</title><rect width="126" height="126" rx="8" ry="8"/><path class="cls-1" d="M554,362.65a31.4,31.4,0,0,1-9,2.47,15.75,15.75,0,0,0,6.91-8.69,31.44,31.44,0,0,1-10,3.81,15.72,15.72,0,0,0-26.76,14.33,44.59,44.59,0,0,1-32.37-16.41,15.72,15.72,0,0,0,4.86,21,15.64,15.64,0,0,1-7.11-2c0,.07,0,.13,0,.2a15.72,15.72,0,0,0,12.6,15.4A15.74,15.74,0,0,1,486,393a15.72,15.72,0,0,0,14.67,10.91,31.51,31.51,0,0,1-19.51,6.72,31.87,31.87,0,0,1-3.75-.22,44.45,44.45,0,0,0,24.08,7.06c28.89,0,44.69-23.93,44.69-44.69q0-1,0-2A31.91,31.91,0,0,0,554,362.65Z" transform="translate(-449 -321)"/></svg>